<?xml version="1.0" encoding="UTF-8" standalone="no"?>
<!-- Created with Inkscape (http://www.inkscape.org/) -->

<svg
   width="512"
   height="512"
   viewBox="0 0 512 512"
   version="1.1"
   id="svg1"
   sodipodi:docname="jump_logotipo.svg"
   inkscape:version="1.3.2 (091e20e, 2023-11-25, custom)"
   inkscape:export-filename="jump_logotipo.png"
   inkscape:export-xdpi="96"
   inkscape:export-ydpi="96"
   xml:space="preserve"
   xmlns:inkscape="http://www.inkscape.org/namespaces/inkscape"
   xmlns:sodipodi="http://sodipodi.sourceforge.net/DTD/sodipodi-0.dtd"
   xmlns="http://www.w3.org/2000/svg"
   xmlns:svg="http://www.w3.org/2000/svg"><sodipodi:namedview
     id="namedview1"
     pagecolor="#505050"
     bordercolor="#eeeeee"
     borderopacity="1"
     inkscape:showpageshadow="0"
     inkscape:pageopacity="0"
     inkscape:pagecheckerboard="0"
     inkscape:deskcolor="#505050"
     inkscape:document-units="px"
     inkscape:zoom="1.1325815"
     inkscape:cx="358.91457"
     inkscape:cy="300.19915"
     inkscape:window-width="1920"
     inkscape:window-height="1017"
     inkscape:window-x="-8"
     inkscape:window-y="-8"
     inkscape:window-maximized="1"
     inkscape:current-layer="svg1"
     showguides="true"
     showgrid="false"><sodipodi:guide
       position="254.28634,240.05489"
       orientation="0,-1"
       id="guide8"
       inkscape:locked="false" /><sodipodi:guide
       position="252.52046,240.93782"
       orientation="1,0"
       id="guide9"
       inkscape:locked="false" /></sodipodi:namedview><defs
     id="defs1"><inkscape:path-effect
       effect="bend_path"
       id="path-effect8"
       is_visible="true"
       lpeversion="1"
       bendpath="m 71.589405,242.29507 c 122.725225,61.76366 264.896535,-62.4388 401.892115,0"
       prop_scale="1"
       scale_y_rel="false"
       vertical="false"
       hide_knot="false"
       bendpath-nodetypes="cc" /><inkscape:path-effect
       effect="bend_path"
       id="path-effect6"
       is_visible="true"
       lpeversion="1"
       bendpath="m 71.589405,242.29507 c 122.725225,61.76366 264.896535,-62.4388 401.892115,0"
       prop_scale="1"
       scale_y_rel="false"
       vertical="false"
       hide_knot="false"
       bendpath-nodetypes="cc" /><inkscape:path-effect
       effect="taper_stroke"
       start_shape="center | center | center | center | center | center | center | center | center | center | center | center | center | center | center | center"
       end_shape="center | center | center | center | center | center | center | center | center | center | center | center | center | center | center | center"
       id="path-effect4"
       is_visible="true"
       lpeversion="1"
       stroke_width="0.5"
       subpath="1"
       attach_start="0.2 | 0.2 | 0.2 | 0.2 | 0.2 | 0.2 | 0.2 | 0.2 | 0.2 | 0.2 | 0.2 | 0.2 | 0.2 | 0.2 | 0.2"
       end_offset="0.2 | 0.2 | 0.2 | 0.2 | 0.2 | 0.2 | 0.2 | 0.2 | 0.2 | 0.2 | 0.2 | 0.2 | 0.2 | 0.2 | 0.2"
       start_smoothing="0.5 | 0.5 | 0.5 | 0.5 | 0.5 | 0.5 | 0.5 | 0.5 | 0.5 | 0.5 | 0.5 | 0.5 | 0.5 | 0.5 | 0.5"
       end_smoothing="0.5 | 0.5 | 0.5 | 0.5 | 0.5 | 0.5 | 0.5 | 0.5 | 0.5 | 0.5 | 0.5 | 0.5 | 0.5 | 0.5 | 0.5"
       jointype="extrapolated"
       miter_limit="100" /><inkscape:path-effect
       effect="fillet_chamfer"
       id="path-effect3"
       is_visible="true"
       lpeversion="1"
       nodesatellites_param="F,0,0,1,0,0,0,1 @ F,0,0,1,0,0,0,1 @ F,0,0,1,0,0,0,1 @ F,0,0,1,0,0,0,1 @ F,0,0,1,0,0,0,1 @ F,0,0,1,0,0,0,1 @ F,0,0,1,0,0,0,1 @ F,0,0,1,0,0,0,1 @ F,0,0,1,0,0,0,1 @ F,0,0,1,0,0,0,1 @ F,0,0,1,0,0,0,1 @ F,0,0,1,0,0,0,1 @ F,0,0,1,0,0,0,1 @ F,0,0,1,0,0,0,1 @ F,0,0,1,0,0,0,1 @ F,0,0,1,0,0,0,1 @ F,0,0,1,0,0,0,1 @ F,0,0,1,0,0,0,1 @ F,0,0,1,0,0,0,1 @ F,0,0,1,0,0,0,1 @ F,0,0,1,0,0,0,1 @ F,0,0,1,0,0,0,1 @ F,0,0,1,0,0,0,1 @ F,0,0,1,0,0,0,1 | F,0,0,1,0,0,0,1 @ F,0,0,1,0,0,0,1 @ F,0,0,1,0,0,0,1 @ F,0,0,1,0,0,0,1 @ F,0,0,1,0,0,0,1 @ F,0,0,1,0,0,0,1 @ F,0,0,1,0,0,0,1 @ F,0,0,1,0,0,0,1 @ F,0,0,1,0,0,0,1 @ F,0,0,1,0,0,0,1 @ F,0,0,1,0,0,0,1 @ F,0,0,1,0,0,0,1 @ F,0,0,1,0,0,0,1 @ F,0,0,1,0,0,0,1 @ F,0,0,1,0,0,0,1 @ F,0,0,1,0,0,0,1 | F,0,0,1,0,0,0,1 @ F,0,0,1,0,0,0,1 @ F,0,0,1,0,0,0,1 @ F,0,0,1,0,0,0,1 @ F,0,0,1,0,0,0,1 @ F,0,0,1,0,0,0,1 @ F,0,0,1,0,0,0,1 @ F,0,0,1,0,0,0,1 @ F,0,0,1,0,0,0,1 @ F,0,0,1,0,0,0,1 @ F,0,0,1,0,0,0,1 @ F,0,0,1,0,0,0,1 @ F,0,0,1,0,0,0,1 | F,0,0,1,0,0,0,1 @ F,0,0,1,0,0,0,1 @ F,0,0,1,0,0,0,1 @ F,0,0,1,0,0,0,1 @ F,0,0,1,0,0,0,1 @ F,0,0,1,0,0,0,1 @ F,0,0,1,0,0,0,1 @ F,0,0,1,0,0,0,1 @ F,0,0,1,0,0,0,1 @ F,0,0,1,0,0,0,1 @ F,0,0,1,0,0,0,1 @ F,0,0,1,0,0,0,1 @ F,0,0,1,0,0,0,1 @ F,0,0,1,0,0,0,1 @ F,0,0,1,0,0,0,1 @ F,0,0,1,0,0,0,1 @ F,0,0,1,0,0,0,1 @ F,0,0,1,0,0,0,1 @ F,0,0,1,0,0,0,1 @ F,0,0,1,0,0,0,1 @ F,0,0,1,0,0,0,1 @ F,0,0,1,0,0,0,1 @ F,0,0,1,0,0,0,1 @ F,0,0,1,0,0,0,1 @ F,0,0,1,0,0,0,1 @ F,0,0,1,0,0,0,1 @ F,0,0,1,0,0,0,1 @ F,0,0,1,0,0,0,1 @ F,0,0,1,0,0,0,1 @ F,0,0,1,0,0,0,1 @ F,0,0,1,0,0,0,1 @ F,0,0,1,0,0,0,1 @ F,0,0,1,0,0,0,1 @ F,0,0,1,0,0,0,1 @ F,0,0,1,0,0,0,1 @ F,0,0,1,0,0,0,1 @ F,0,0,1,0,0,0,1 | F,0,0,1,0,0,0,1 @ F,0,0,1,0,0,0,1 @ F,0,0,1,0,0,0,1 @ F,0,0,1,0,0,0,1 @ F,0,0,1,0,0,0,1 @ F,0,0,1,0,0,0,1 @ F,0,0,1,0,0,0,1 @ F,0,0,1,0,0,0,1 @ F,0,0,1,0,0,0,1 @ F,0,0,1,0,0,0,1 @ F,0,0,1,0,0,0,1 @ F,0,0,1,0,0,0,1 @ F,0,0,1,0,0,0,1 @ F,0,0,1,0,0,0,1 @ F,0,0,1,0,0,0,1 @ F,0,0,1,0,0,0,1 @ F,0,0,1,0,0,0,1 | F,0,0,1,0,0,0,1 @ F,0,0,1,0,0,0,1 @ F,0,0,1,0,0,0,1 @ F,0,0,1,0,0,0,1 @ F,0,0,1,0,0,0,1 @ F,0,0,1,0,0,0,1 @ F,0,0,1,0,0,0,1 @ F,0,0,1,0,0,0,1 @ F,0,0,1,0,0,0,1 @ F,0,0,1,0,0,0,1 @ F,0,0,1,0,0,0,1 @ F,0,0,1,0,0,0,1 @ F,0,0,1,0,0,0,1 @ F,0,0,1,0,0,0,1 @ F,0,0,1,0,0,0,1 @ F,0,0,1,0,0,0,1 @ F,0,0,1,0,0,0,1 | F,0,0,1,0,0,0,1 @ F,0,0,1,0,0,0,1 @ F,0,0,1,0,0,0,1 @ F,0,0,1,0,0,0,1 @ F,0,0,1,0,0,0,1 @ F,0,0,1,0,0,0,1 @ F,0,0,1,0,0,0,1 @ F,0,0,1,0,0,0,1 @ F,0,0,1,0,0,0,1 @ F,0,0,1,0,0,0,1 | F,0,0,1,0,0,0,1 @ F,0,0,1,0,0,0,1 @ F,0,0,1,0,0,0,1 @ F,0,0,1,0,0,0,1 @ F,0,0,1,0,0,0,1 @ F,0,0,1,0,0,0,1 @ F,0,0,1,0,0,0,1 @ F,0,0,1,0,0,0,1 @ F,0,0,1,0,0,0,1 @ F,0,0,1,0,0,0,1 @ F,0,0,1,0,0,0,1 @ F,0,0,1,0,0,0,1 @ F,0,0,1,0,0,0,1 @ F,0,0,1,0,0,0,1 @ F,0,0,1,0,0,0,1 @ F,0,0,1,0,0,0,1 @ F,0,0,1,0,0,0,1 @ F,0,0,1,0,0,0,1 @ F,0,0,1,0,0,0,1 @ F,0,0,1,0,0,0,1 @ F,0,0,1,0,0,0,1 @ F,0,0,1,0,0,0,1 @ F,0,0,1,0,0,0,1 @ F,0,0,1,0,0,0,1 @ F,0,0,1,0,0,0,1 @ F,0,0,1,0,0,0,1 @ F,0,0,1,0,0,0,1 @ F,0,0,1,0,0,0,1 @ F,0,0,1,0,0,0,1 @ F,0,0,1,0,0,0,1 @ F,0,0,1,0,0,0,1 @ F,0,0,1,0,0,0,1 @ F,0,0,1,0,0,0,1 @ F,0,0,1,0,0,0,1 @ F,0,0,1,0,0,0,1 @ F,0,0,1,0,0,0,1 @ F,0,0,1,0,0,0,1 @ F,0,0,1,0,0,0,1 @ F,0,0,1,0,0,0,1 @ F,0,0,1,0,0,0,1 @ F,0,0,1,0,0,0,1 @ F,0,0,1,0,0,0,1 @ F,0,0,1,0,0,0,1 @ F,0,0,1,0,0,0,1 @ F,0,0,1,0,0,0,1 @ F,0,0,1,0,0,0,1 @ F,0,0,1,0,0,0,1 @ F,0,0,1,0,0,0,1 @ F,0,0,1,0,0,0,1 @ F,0,0,1,0,0,0,1 @ F,0,0,1,0,0,0,1 @ F,0,0,1,0,0,0,1 @ F,0,0,1,0,0,0,1 @ F,0,0,1,0,0,0,1 @ F,0,0,1,0,0,0,1 | F,0,0,1,0,0,0,1 @ F,0,0,1,0,0,0,1 @ F,0,0,1,0,0,0,1 @ F,0,0,1,0,0,0,1 @ F,0,0,1,0,0,0,1 @ F,0,0,1,0,0,0,1 @ F,0,0,1,0,0,0,1 @ F,0,0,1,0,0,0,1 @ F,0,0,1,0,0,0,1 @ F,0,0,1,0,0,0,1 @ F,0,0,1,0,0,0,1 @ F,0,0,1,0,0,0,1 @ F,0,0,1,0,0,0,1 @ F,0,0,1,0,0,0,1 @ F,0,0,1,0,0,0,1 @ F,0,0,1,0,0,0,1 @ F,0,0,1,0,0,0,1 @ F,0,0,1,0,0,0,1 | F,0,0,1,0,0,0,1 @ F,0,0,1,0,0,0,1 @ F,0,0,1,0,0,0,1 @ F,0,0,1,0,0,0,1 @ F,0,0,1,0,0,0,1 @ F,0,0,1,0,0,0,1 @ F,0,0,1,0,0,0,1 @ F,0,0,1,0,0,0,1 @ F,0,0,1,0,0,0,1 @ F,0,0,1,0,0,0,1 @ F,0,0,1,0,0,0,1 @ F,0,0,1,0,0,0,1 @ F,0,0,1,0,0,0,1 | F,0,0,1,0,0,0,1 @ F,0,0,1,0,0,0,1 @ F,0,0,1,0,0,0,1 @ F,0,0,1,0,0,0,1 @ F,0,0,1,0,0,0,1 @ F,0,0,1,0,0,0,1 @ F,0,0,1,0,0,0,1 @ F,0,0,1,0,0,0,1 @ F,0,0,1,0,0,0,1 | F,0,0,1,0,0,0,1 @ F,0,0,1,0,0,0,1 @ F,0,0,1,0,0,0,1 @ F,0,0,1,0,0,0,1 @ F,0,0,1,0,0,0,1 @ F,0,0,1,0,0,0,1 @ F,0,0,1,0,0,0,1 @ F,0,0,1,0,0,0,1 @ F,0,0,1,0,0,0,1 @ F,0,0,1,0,0,0,1 @ F,0,0,1,0,0,0,1 @ F,0,0,1,0,0,0,1 @ F,0,0,1,0,0,0,1 @ F,0,0,1,0,0,0,1 @ F,0,0,1,0,0,0,1 @ F,0,0,1,0,0,0,1 @ F,0,0,1,0,0,0,1 @ F,0,0,1,0,0,0,1 @ F,0,0,1,0,0,0,1 @ F,0,0,1,0,0,0,1 @ F,0,0,1,0,0,0,1 @ F,0,0,1,0,0,0,1 @ F,0,0,1,0,0,0,1 @ F,0,0,1,0,0,0,1 @ F,0,0,1,0,0,0,1 @ F,0,0,1,0,0,0,1 @ F,0,0,1,0,0,0,1 @ F,0,0,1,0,0,0,1 @ F,0,0,1,0,0,0,1 | F,0,0,1,0,0,0,1 @ F,0,0,1,0,0,0,1 @ F,0,0,1,0,0,0,1 @ F,0,0,1,0,0,0,1 @ F,0,0,1,0,0,0,1 @ F,0,0,1,0,0,0,1 @ F,0,0,1,0,0,0,1 @ F,0,0,1,0,0,0,1 @ F,0,0,1,0,0,0,1 @ F,0,0,1,0,0,0,1 @ F,0,0,1,0,0,0,1 @ F,0,0,1,0,0,0,1 @ F,0,0,1,0,0,0,1 @ F,0,0,1,0,0,0,1 @ F,0,0,1,0,0,0,1 | F,0,0,1,0,0,0,1 @ F,0,0,1,0,0,0,1 @ F,0,0,1,0,0,0,1 @ F,0,0,1,0,0,0,1 @ F,0,0,1,0,0,0,1 @ F,0,0,1,0,0,0,1 @ F,0,0,1,0,0,0,1 @ F,0,0,1,0,0,0,1 | F,0,0,1,0,0,0,1 @ F,0,0,1,0,0,0,1 @ F,0,0,1,0,0,0,1 @ F,0,0,1,0,0,0,1 @ F,0,0,1,0,0,0,1 @ F,0,0,1,0,0,0,1 @ F,0,0,1,0,0,0,1 @ F,0,0,1,0,0,0,1 @ F,0,0,1,0,0,0,1"
       radius="0"
       unit="px"
       method="auto"
       mode="F"
       chamfer_steps="1"
       flexible="false"
       use_knot_distance="true"
       apply_no_radius="true"
       apply_with_radius="true"
       only_selected="false"
       hide_knots="false" /><inkscape:path-effect
       effect="bend_path"
       id="path-effect14"
       is_visible="true"
       lpeversion="1"
       bendpath="m 57.6371,352.642 c 151.67903,59.36643 279.05096,-46.61775 410.77212,0"
       prop_scale="1"
       scale_y_rel="false"
       vertical="false"
       hide_knot="false"
       bendpath-nodetypes="cc" /><inkscape:path-effect
       effect="bend_path"
       id="path-effect2"
       is_visible="true"
       lpeversion="1"
       bendpath="m 73.096039,245.10371 c 130.031691,32.76151 240.767051,-40.7071 362.398621,0"
       prop_scale="1"
       scale_y_rel="false"
       vertical="false"
       hide_knot="false"
       bendpath-nodetypes="cc" /><inkscape:path-effect
       effect="perspective-envelope"
       up_left_point="73.096039,187.69916"
       up_right_point="435.27877,187.26192"
       down_left_point="73.096039,338.26107"
       down_right_point="435.71601,296.28557"
       id="path-effect1"
       is_visible="true"
       lpeversion="1"
       deform_type="perspective"
       horizontal_mirror="false"
       vertical_mirror="false"
       overflow_perspective="false" /><inkscape:path-effect
       effect="bend_path"
       id="path-effect14-0"
       is_visible="true"
       lpeversion="1"
       bendpath="m 57.6371,352.642 c 151.67903,59.36643 279.05096,-46.61775 410.77212,0"
       prop_scale="1"
       scale_y_rel="false"
       vertical="false"
       hide_knot="false"
       bendpath-nodetypes="cc" /><inkscape:path-effect
       effect="fill_between_many"
       method="bsplinespiro"
       autoreverse="false"
       close="false"
       join="false"
       linkedpaths="#text1,0,1"
       id="path-effect5" /></defs><path
     class="st0"
     d="m 393.06111,186.63242 c -3.43256,-1.95027 -7.79917,-0.7543 -9.75008,2.68275 -0.65288,1.14526 -0.94754,2.39708 -0.92892,3.63029 -4.74408,2.21797 -9.40022,3.02748 -14.49866,3.83699 -4.6465,1.49576 -10.8305,3.18412 -1.67423,-27.97468 0.1239,0.005 0.24844,0.0186 0.37298,0.0186 4.45841,0 8.07457,-3.61681 8.07457,-8.07971 0,-4.4629 -3.61616,-8.0797 -8.07457,-8.0797 -4.45841,0 -8.07521,3.6168 -8.07521,8.0797 0,2.51263 1.14589,4.75307 2.94017,6.23471 -2.40157,8.176 -5.82514,18.48267 -10.15452,23.6177 -3.27142,5.06121 -10.62828,3.03647 -17.20773,-3.56095 0.26641,-0.82813 0.41407,-1.70248 0.41407,-2.61791 0,-4.69273 -3.8049,-8.49313 -8.49377,-8.49313 -4.69273,0 -8.49827,3.8004 -8.49827,8.49313 0,4.68887 3.80554,8.49377 8.49827,8.49377 1.79877,0 3.46915,-0.56621 4.84487,-1.52273 6.56147,5.03361 12.07333,11.83389 8.16701,22.99179 -2.60443,9.75907 -8.93095,32.45171 -11.42432,34.12208 -1.67487,1.12664 -13.41246,-7.87748 -22.56424,-15.18363 0.0783,-3.21622 0.77292,-5.01563 1.51374,-5.95867 11.64515,-14.83825 2.18074,-31.7937 -8.38785,-36.39462 -14.75544,-6.4273 -11.51162,-18.43644 -27.39948,-20.55298 -15.88786,-2.11141 -16.25121,8.58107 -31.81681,12.67164 -20.50291,5.38733 -20.89835,25.0987 -17.6128,32.93446 0.37233,0.88783 0.6901,2.21284 0.28503,4.38523 -9.61143,-6.65327 -37.34216,-23.5856 -36.3529,-26.08796 1.1093,-2.78868 16.36163,-43.84457 22.65091,-47.37278 5.29167,-2.96778 9.4689,-1.45404 16.24671,-0.58418 1.02136,3.54747 4.2838,6.14227 8.15739,6.14227 4.69336,0 8.49377,-3.8049 8.49377,-8.49827 0,-4.68887 -3.80041,-8.49376 -8.49377,-8.49376 -3.33563,0 -6.2161,1.9278 -7.6053,4.72546 -8.26844,-2.02474 -15.14704,-5.36486 -12.47392,-10.35738 2.46191,-4.60542 7.85887,-12.44567 10.88635,-17.37849 4.61505,-0.0873 8.32815,-3.84661 8.32815,-8.48414 -6.5e-4,-4.690796 -3.80554,-8.495686 -8.49891,-8.495686 -4.68887,0 -8.49377,3.80489 -8.49377,8.493756 0,1.94193 0.65801,3.72722 1.75769,5.16265 -11.53024,17.18012 -18.041,19.44881 -22.6278,12.65302 -3.44668,-4.339 -5.87586,-6.77781 -8.09832,-10.71623 0.90195,-1.19597 1.44505,-2.6821 1.44505,-4.29279 0,-3.95704 -3.20274,-7.159766 -7.15528,-7.159766 -3.95191,0 -7.15465,3.202726 -7.15465,7.159766 0,3.94805 3.20274,7.15015 7.15465,7.15015 0.16562,0 0.33125,-0.009 0.49238,-0.0225 0.17975,0.3351 0.38196,0.67598 0.60729,1.02136 3.6213,5.57606 10.24696,18.80428 8.72873,27.35326 -2.90294,16.352 -24.62044,44.15207 -21.63019,54.8407 4.3756,15.64841 39.05426,47.54289 44.42811,52.41087 -4.08094,13.29756 -7.81265,28.93184 -7.26506,43.91262 0.21184,5.89897 1.09967,11.54885 2.49401,16.87263 -14.59945,2.33288 -49.56314,8.52522 -56.2299,15.15602 -8.4713,8.42893 13.00226,51.68868 16.33788,59.50133 5.27755,12.36286 5.27755,17.09282 5.27755,17.09282 0,0 -1.7763,12.41806 -14.81129,-11.74658 -2.63204,-8.50725 -6.97939,-16.1729 -10.17763,-23.98555 1.51374,-1.45853 2.46191,-3.50574 2.46191,-5.76993 0,-4.4353 -3.59818,-8.03348 -8.02899,-8.03348 -4.4353,0 -8.03348,3.59818 -8.03348,8.03348 0,4.06232 3.02299,7.41207 6.94343,7.94618 2.53446,7.9924 6.51525,17.65453 6.63016,21.18852 0.14701,4.42567 -2.93568,5.48876 -6.88373,2.02474 -4.9784,-4.37174 -10.22385,-10.04859 -13.95941,-13.89072 0.0456,-0.22084 0.0918,-0.44167 0.12389,-0.67149 0.58419,-4.39422 -2.50749,-8.43407 -6.90106,-9.01376 -4.39422,-0.58868 -8.43407,2.503 -9.01825,6.89657 -0.58419,4.39486 2.503,8.43407 6.90171,9.01825 0.9058,0.12454 1.79877,0.0783 2.65001,-0.0963 5.69161,7.37997 21.3856,20.55748 15.58357,20.36874 -4.11368,-0.13353 -7.43967,0.0507 -10.09482,0.44167 -1.21908,-2.87598 -4.07195,-4.89559 -7.39345,-4.89559 -4.4353,0 -8.02899,3.59819 -8.02899,8.03349 0,4.4308 3.59369,8.02899 8.02899,8.02899 2.86186,0 5.36935,-1.50475 6.79129,-3.75868 8.57145,0.13353 16.32889,0.35372 19.41672,1.58693 40.81195,17.27257 53.73139,12.83727 48.95585,-12.05087 -4.77169,-24.89199 -10.83115,-55.7786 -10.83115,-55.7786 l 39.05876,-6.21674 c 7.73882,9.56585 16.66527,15.56111 23.62669,16.48617 v 0.005 h 0.005 c 2.51198,0.33189 5.44317,0.0873 8.63179,-0.68947 l 0.0822,-0.01 0.12903,-0.0462 c 2.84324,-0.70808 5.87971,-1.8405 9.01376,-3.3812 l 15.94692,-5.98628 c -1.20111,0.98028 -2.42918,2.08894 -3.67586,3.34462 -2.07546,2.08893 -4.19649,4.58744 -6.32202,7.5687 -14.72848,20.62681 14.26819,30.35314 37.99567,30.02189 3.34076,-0.0456 5.99077,0.68561 8.21773,1.7808 0,0 0,0 0.004,0 2.59993,1.27429 4.62467,3.04995 6.48764,4.67025 -0.009,0.0411 -0.018,0.0828 -0.0231,0.1239 -0.58418,4.39422 2.503,8.42957 6.89722,9.01376 4.3987,0.58482 8.43342,-2.50236 9.0221,-6.90107 0.58418,-4.39421 -2.5075,-8.43407 -6.90107,-9.01825 -1.27942,-0.17012 -2.52162,-0.018 -3.66302,0.37298 -1.45853,-1.8726 -3.1976,-4.02637 -5.21271,-6.49214 -3.37286,-4.13229 9.21148,-3.16101 17.65004,-6.29442 1.2929,0.88334 2.85222,1.40782 4.53673,1.40782 4.43979,0 8.03348,-3.59818 8.03348,-8.03348 0,-4.4353 -3.59369,-8.02899 -8.03348,-8.02899 -3.8325,0 -7.03075,2.68724 -7.83127,6.28029 -4.9784,1.68386 -11.14827,3.46466 -15.7171,2.88946 -5.21271,-0.65801 -4.48152,-4.84487 -4.48152,-4.84487 1.38984,-2.78803 6.80541,-7.00763 11.68238,-11.63616 0.85638,0.31327 1.77181,0.48789 2.73282,0.48789 4.4353,0 8.02899,-3.59369 8.02899,-8.02899 0,-4.43145 -3.59369,-8.02899 -8.02899,-8.02899 -4.4353,0 -8.02899,3.59754 -8.02899,8.02899 0,1.04896 0.20736,2.04721 0.57071,2.96714 -5.39696,5.75131 -11.32289,11.52189 -19.98742,14.56735 -6.15575,2.67825 -5.0657,1.39433 -5.0657,1.39433 0,0 -4.30178,-0.11041 2.01575,-5.79304 6.32202,-5.67749 46.18066,-37.23688 39.67054,-47.26236 -5.56771,-8.58108 -23.33267,-8.0566 -38.8514,-3.2894 0.11491,-0.35437 0.23945,-0.6946 0.34923,-1.04897 4.12266,-13.28343 4.83588,-28.06262 4.55534,-41.22601 9.54723,5.18575 18.87362,9.28531 25.0069,9.64416 11.07958,0.64389 14.43832,-42.17868 22.01152,-56.95723 3.96153,-7.72984 23.98554,-16.90473 30.24272,-19.14966 0.38197,-0.13802 0.74532,-0.29017 1.0862,-0.44681 0.35885,0.31264 0.74981,0.59382 1.17799,0.83776 3.43705,1.95541 7.80366,0.7543 9.75907,-2.68275 1.95156,-3.43256 0.75046,-7.80302 -2.6866,-9.75458 z"
     id="path1"
     style="display:none;fill:#000000;fill-opacity:1;stroke-width:0.64196" /><g
     id="g8"
     transform="matrix(1.0301852,0.13313451,-0.13313451,1.0301852,24.268533,-53.410206)"
     style="stroke-width:0.73524"><path
       style="font-size:192px;font-family:'Choret Fudyng Bubble';-inkscape-font-specification:'Choret Fudyng Bubble';letter-spacing:-12.66px;fill:#000000;fill-opacity:1;fill-rule:nonzero;stroke:#000000;stroke-width:9.99926;stroke-linecap:butt;stroke-linejoin:bevel;stroke-dasharray:none;stroke-opacity:1;paint-order:normal"
       d="m 61.735185,277.69677 c -2.252513,-6.65786 -1.486787,-13.13063 1.682171,-19.41711 2.533584,-5.02605 6.164204,-9.00167 10.578019,-12.14049 6.691856,-4.79737 13.825767,-5.44372 22.372262,-2.64939 5.411733,1.76941 9.355433,2.14129 11.511203,1.50454 2.3355,-0.74022 3.9679,-2.48076 4.92747,-5.15225 1.04797,-2.52314 1.87984,-5.28552 2.53577,-8.28935 0.62878,-2.87945 1.01027,-5.93464 1.20252,-9.17418 0.29369,-3.21223 0.55261,-6.37433 0.78502,-9.474 0.13826,-3.12531 0.4107,-6.41554 0.81358,-9.87842 0.40254,-3.45988 1.00313,-6.81143 1.75128,-10.05373 1.76741,-7.53572 4.3771,-13.14865 7.19415,-16.64107 1.8339,-2.33089 3.6724,-3.82636 5.58577,-4.49086 1.14129,-0.36339 2.3409,-0.45524 3.64503,-0.28292 4.3779,0.57848 7.94571,2.557 10.53056,6.33299 2.56413,3.61313 4.0969,10.12326 4.06712,19.44509 -0.009,2.88172 -0.36484,6.538 0.18767,9.58667 -2.25998,2.397 -3.86235,5.05798 -4.1004,9.52122 -0.69264,5.67092 0.2319,24.79263 0.0146,30.12909 0.28372,4.25466 -0.20728,12.83967 -0.95679,21.96389 -0.37376,4.55028 0.36933,8.16374 -0.72921,12.63446 -1.04383,4.24808 -4.06869,10.06142 -12.7174,17.44721 -6.18841,4.11862 -12.73932,7.22504 -22.17047,7.26988 -2.2587,1.9e-4 -4.69111,-0.17904 -7.31132,-0.57794 -2.15169,-0.30112 -5.293844,-0.89126 -9.220143,-1.85603 -8.737131,-2.14687 -15.787378,-5.51201 -20.940222,-9.55601 -5.168967,-4.05666 -8.984437,-9.5397 -11.23821,-16.20129 z m 60.152445,-79.70348 c -0.19737,0.87453 -0.24184,1.65119 -0.12642,2.33303 0.22777,0.57513 0.55882,0.90934 0.98657,0.99983 0.51394,0.10873 0.97736,-0.18925 1.38292,-0.89103 0.43169,-0.82922 0.69178,-1.94864 0.80204,-3.36435 0.41856,-5.08423 0.90245,-8.68985 1.28158,-10.51745 0.51886,-2.50111 1.21482,-4.1982 2.04009,-5.07172 0.7461,-0.78973 1.73335,-1.11306 2.98621,-0.99512 0,0 0,0 0,0 0.1467,0.016 0.29741,0.0378 0.45228,0.0653 1.00994,0.17894 1.84173,0.36917 2.49709,0.59219 0.26053,0.0371 0.5223,0.073 0.78529,0.10788 0.82695,0.10956 1.50052,-0.007 2.00062,-0.33772 0.59181,-0.45045 0.91729,-0.99651 0.98263,-1.63292 0.0654,-0.63721 -0.18665,-1.17442 -0.73745,-1.622 -0.4627,-0.56673 -1.13204,-0.83785 -2.00938,-0.82914 -1.29142,0.009 -2.42595,0.14207 -3.43338,0.41401 -1.7405,0.51244 -3.15323,1.47091 -4.23784,2.91657 -1.5754,2.11557 -3.15096,6.23107 -4.50233,12.18662 -0.5393,2.37672 -0.92258,4.24896 -1.15052,5.64606 z M 106.8404,298.01036 c 1.86957,0.61284 3.30871,0.98906 4.26867,1.14935 0.14686,0.0245 0.29359,0.0478 0.44019,0.0698 0,0 0,0 0,0 6.41623,0.94263 12.45904,-0.48244 17.7856,-4.14947 5.62614,-3.87327 8.85067,-9.50132 10.05919,-16.60825 0.0998,-0.57159 0.19898,-1.14324 0.29767,-1.71496 0.0752,-1.53398 -0.16632,-2.31435 -0.72473,-2.34424 -0.41882,-0.0224 -0.86126,0.40131 -1.33492,1.27064 -0.47324,0.86857 -0.8313,2.06561 -1.06926,3.5885 -1.36353,5.80628 -4.45544,10.24267 -9.52158,13.08523 -4.44611,2.47705 -9.43752,3.30329 -14.74848,2.38916 -0.53134,-0.093 -1.06513,-0.20357 -1.60099,-0.33164 -0.47209,-0.0817 -0.94395,-0.16512 -1.41556,-0.25019 -1.57264,-0.28366 -2.86109,-0.33963 -3.88065,-0.15135 -0.86115,0.21945 -1.34629,0.57535 -1.44983,1.07735 -0.23187,1.12427 0.71997,2.11797 2.89468,2.92003 z m 39.96015,-66.31161 c -0.10176,-0.97841 -0.22759,-8.7245 -0.17991,-10.59607 0.16563,-6.50098 1.77435,-11.37513 4.57939,-14.54732 2.92034,-3.31622 6.85717,-5.04588 12.15904,-5.34106 0.0278,-0.002 0.0556,-0.003 0.0834,-0.005 12.41305,-0.69549 20.14699,5.54764 21.57376,21.02267 0.23131,3.58495 0.78027,9.64384 1.63156,18.18108 0.21692,2.16594 0.43271,4.33199 0.64739,6.49816 0.005,1.03097 0.12022,2.43721 0.34785,4.21371 0.2604,2.03218 0.64691,3.52917 1.16615,4.49537 0.63098,0.82119 1.66105,1.13935 3.08442,0.94373 1.29454,-0.17791 2.03535,-0.99644 2.2206,-2.44534 0.29607,-1.5967 0.21789,-3.91014 -0.22548,-6.95237 -0.47967,-3.29126 -0.93113,-5.94702 -1.34902,-7.95357 -0.26439,-1.38451 -0.52813,-2.76912 -0.79121,-4.15383 -0.40327,-2.78532 -0.64535,-4.88855 -0.727,-6.29776 -0.26171,-2.22582 -0.52446,-4.45152 -0.78824,-6.67709 -1.21553,-8.34044 -0.25694,-14.46919 2.74754,-18.29862 2.89431,-3.71178 7.11508,-6.17535 12.86357,-7.47614 0,0 0,0 0,0 0.44849,-0.10268 0.90623,-0.1985 1.37334,-0.28751 6.26863,-1.19454 14.80651,0.9487 17.69841,4.36317 -0.34866,2.84288 0.42849,5.58619 3.41366,12.59924 1.85791,5.40043 3.62026,7.82291 5.26395,17.2572 0.50504,3.5575 0.64777,5.95706 1.025,7.70885 0.60798,4.05049 0.59157,8.30311 0.50372,14.45803 0.12254,4.757 -0.14509,2.85471 0.70872,11.41076 0.48198,2.89675 1.91168,13.19059 2.63289,14.70071 2.26794,5.63714 5.48805,9.0803 6.52596,9.98609 -1.82387,4.50474 -5.98786,9.65496 -12.41862,10.93598 -2.67239,0.53234 -5.05746,0.68344 -7.13612,0.45809 -1.84859,-0.19754 -3.45594,-0.69491 -4.8131,-1.4875 -2.76814,-1.83555 -4.81842,-3.75036 -6.15802,-5.72704 -1.36128,-2.10251 -2.17241,-3.13355 -2.44788,-3.08668 -0.41322,0.0703 -1.41939,1.60716 -3.08186,4.60105 -1.67924,2.86106 -4.48816,5.71697 -8.49767,8.47726 -4.00543,2.75749 -9.60563,4.59746 -16.78576,5.31178 -5.01977,0.4994 -9.66132,0.38072 -13.84221,-0.321 -5.94111,-0.98234 -10.94252,-3.17772 -14.8384,-6.43417 -6.58881,-5.76746 -9.33274,-15.81979 -9.00418,-30.20324 0.0356,-1.56003 0.24319,-4.58034 0.60583,-9.2068 0.3698,-5.0902 0.56551,-8.78487 0.60715,-10.93665 0.002,-13.25189 -0.15192,-14.66118 -0.37865,-19.18838 z m 4.87514,-4.97527 c 0.11328,0.89632 0.34033,1.66379 0.68448,2.30249 0.45725,0.50984 0.91727,0.76211 1.375,0.75687 0.57257,-0.007 0.96919,-0.33338 1.18688,-0.97735 0.33235,-0.64694 0.42633,-1.60787 0.2904,-2.88705 -0.274,-2.68481 -0.52657,-4.66599 -0.76434,-5.9431 -0.25594,-2.54864 -0.38335,-4.16607 -0.39174,-4.79725 -0.0187,-1.40764 0.18032,-2.43684 0.59002,-3.0831 0.71266,-1.55195 2.46316,-2.34495 5.31097,-2.45737 1.48331,-0.0585 2.59927,-0.0508 3.35731,0.0385 0.16021,-0.008 0.32053,-0.0168 0.48095,-0.0254 0.025,-0.001 0.0497,-0.003 0.0743,-0.004 0.71672,-0.0487 1.27706,-0.21206 1.67725,-0.48591 0.40532,-0.41099 0.58898,-0.87271 0.55298,-1.38336 -0.0618,-0.87613 -0.87999,-1.36097 -2.43332,-1.48272 -0.48115,-0.0394 -1.03276,-0.0436 -1.65519,-0.0141 -1.78219,0.0846 -3.47646,0.53225 -5.11402,1.34558 -1.63522,0.81216 -2.85679,2.04745 -3.67606,3.7203 -0.82051,1.41488 -1.34494,3.21357 -1.55614,5.38893 -0.104,2.03503 -0.10647,5.39281 0.0103,9.98849 z m 43.43685,-3.83012 c 0.13955,0.88532 0.43887,1.6157 0.90088,2.19035 0.56235,0.42892 1.08658,0.60382 1.57013,0.52513 0.4836,-0.0787 0.86587,-0.40112 1.14489,-0.96641 0.25826,-0.6919 0.30218,-1.54259 0.13393,-2.55319 -0.33679,-2.02291 -0.85604,-4.39828 -1.55357,-7.14004 -0.26842,-1.25334 -0.53634,-2.50678 -0.80373,-3.76031 -0.22956,-1.38907 -0.18339,-2.5657 0.13491,-3.52699 0.70083,-1.54623 2.61208,-2.57861 5.78037,-3.1444 1.64683,-0.29409 2.89595,-0.45857 3.75037,-0.48561 0.17765,-0.0327 0.35539,-0.0656 0.53323,-0.0985 0.19747,-0.0366 0.38365,-0.0785 0.55849,-0.12569 0,0 0,0 0,0 0.55947,-0.15246 1.00235,-0.35951 1.32769,-0.62015 0.52176,-0.49051 0.73369,-0.98761 0.63666,-1.49029 -0.15662,-0.81142 -1.01871,-1.18248 -2.57674,-1.12766 -0.61665,0.0204 -1.3413,0.10714 -2.17357,0.25909 -1.99685,0.36459 -3.85117,1.08474 -5.57895,2.16323 -1.72667,1.07779 -2.97141,2.51896 -3.74676,4.33262 -0.81605,1.55977 -1.17408,3.43452 -1.06663,5.62032 0.0873,2.05734 0.43091,5.37974 1.0284,9.94848 z m 41.68428,69.22885 c 3.85833,-3.66361 3.72072,-8.03041 2.29076,-12.03665 -0.781,-2.18806 -0.88386,-3.23907 -1.87066,-7.37926 -0.14855,-0.59402 -0.80158,-5.11143 -1.1673,-6.91254 -0.35069,-4.57569 -0.4986,-2.56732 0.3187,2.18355 0.46537,2.30567 0.16738,0.37234 0.40728,2.04614 0.3105,1.36223 0.27177,3.00292 0.56168,4.38066 1.3952,6.63041 0.63014,11.47734 -3.37188,15.16171 -0.32641,0.45815 -0.45217,0.87519 -0.37598,1.2516 0.15235,0.75274 0.54856,1.3254 1.18964,1.71757 0.77565,0.36468 1.44942,0.22682 2.01782,-0.4128 -2e-5,1e-5 -4e-5,1e-5 -6e-5,2e-5 z m 0.0754,-21.58714 c -0.76669,-4.2847 -1.27372,-8.30022 -1.52668,-12.0397 -0.15052,-3.89338 -0.22909,-7.40928 -0.23297,-10.55006 -0.17432,-7.67884 -0.90605,-14.40932 -2.14685,-20.15828 -0.29789,-1.38022 -1.0024,-4.0352 -2.11512,-7.98938 -0.39419,-1.22483 -0.8902,-2.62275 -1.48775,-4.19666 -0.59636,-1.57074 -1.052,-2.78795 -1.36215,-3.63479 -1.59703,-3.84201 -2.55176,-6.52642 -2.87115,-8.02436 -0.80017,-3.75284 0.046,-6.94766 2.53476,-9.58237 2.48913,-2.6351 7.64481,-4.82729 15.66158,-6.64843 4.42947,-1.00623 8.19072,-1.31419 11.24867,-0.90479 1.5341,0.20408 2.8882,0.58932 4.05889,1.15671 3.4734,1.57233 5.91084,3.31289 7.29947,5.23182 1.51697,1.88787 2.40504,2.80301 2.66467,2.74445 0.51919,-0.11708 1.30914,-1.14821 2.38052,-3.09361 2.50661,-4.10401 5.25707,-7.59627 8.26024,-10.47543 3.00057,-2.87666 7.08524,-4.86567 12.27793,-5.92805 4.92178,-1.00694 9.41105,-0.90532 13.38622,0.29805 1.31199,0.37534 2.61437,0.89451 3.90461,1.55771 2.75518,1.41314 5.45498,3.4859 8.07733,6.21882 3.24096,-3.67357 7.24663,-7.25948 12.06496,-10.676 4.9688,-3.44162 10.51315,-5.51785 16.52489,-6.17031 8.14433,-0.88391 15.52484,0.48345 21.76066,3.99313 1.71635,0.96157 3.34508,2.08689 4.88134,3.37281 7.34849,6.18569 7.53443,16.03021 8.67981,29.29752 0.22688,1.29763 0.59384,5.12326 0.6329,7.70481 0.0686,4.53301 -0.0458,10.78717 -0.14367,14.63265 -0.11682,4.61377 -0.14489,7.58175 -0.33346,13.6717 0.11173,6.96628 0.0851,10.91423 -0.0854,13.97712 -0.54001,9.70334 -0.25465,4.43119 -0.9727,15.33968 -1.94808,1.96886 -4.21121,3.51821 -7.01416,4.61488 -2.44647,0.95655 -5.29729,1.57926 -8.74958,1.88128 -12.6161,1.1037 -20.62722,-5.60405 -22.9914,-21.80894 -0.56986,-3.90599 -1.2774,-9.60336 -2.08734,-16.96734 -0.63482,-4.82367 -1.26756,-9.64761 -1.8982,-14.47181 -0.78852,-5.45427 -1.66323,-9.64904 -2.64788,-12.61666 -0.86676,-3.10797 -2.02177,-4.81562 -3.45543,-5.11622 -1.86049,-0.36557 -3.30499,0.18733 -4.31475,1.64627 -0.87536,1.43788 -1.16059,3.04252 -0.87041,4.81112 0.75777,4.61858 2.80298,12.4417 6.08206,23.9176 2.42276,8.65058 3.85116,14.59546 4.32036,17.59349 1.24453,7.95201 0.59566,14.5645 -1.80938,19.74744 -1.33156,3.00599 -3.66448,5.38262 -7.03161,7.16071 -2.44077,1.29339 -5.4298,2.28186 -9.00005,2.9894 -6.94898,1.37713 -12.59373,0.83844 -16.90342,-1.76902 -4.32783,-2.72711 -7.52715,-8.56857 -9.51745,-17.56958 -1.07572,-4.8649 -2.21053,-11.77927 -3.3741,-20.68828 -0.18632,-2.05625 -0.56436,-4.98751 -1.13269,-8.79449 -0.62367,-4.05947 -1.11107,-6.89594 -1.46834,-8.52381 -0.87836,-4.00219 -1.92314,-6.91569 -3.14135,-8.746 -1.21735,-1.829 -2.86525,-2.51454 -4.93417,-2.05323 -0.77549,0.17291 -1.34264,0.36545 -1.70179,0.57705 -0.97656,0.48108 -1.60928,1.27951 -1.89921,2.39448 -0.18937,0.96128 -0.0303,2.56544 0.47641,4.81336 0.73211,3.24804 1.87513,7.12128 3.42673,11.6282 0.86761,2.36338 1.73424,4.72705 2.59978,7.09103 3.10855,8.48051 5.15854,14.98496 6.16345,19.47704 2.1214,9.48304 1.27908,16.90786 -2.53058,22.22169 -1.75361,2.43784 -3.92426,4.49227 -6.5252,6.16347 -2.91448,1.87867 -6.37657,3.27903 -10.40492,4.19491 -7.49405,1.70383 -14.23279,0.7105 -20.03071,-3.0145 -5.70946,-3.8903 -9.22342,-10.51692 -10.65622,-19.9083 z m -3.6225,-54.99155 c 0.31554,0.84816 0.7907,1.53045 1.42664,2.04616 0.60854,0.39067 1.16318,0.53078 1.66305,0.42053 1.00029,-0.22063 1.34836,-1.01931 1.04399,-2.39392 -0.16603,-0.74984 -0.35304,-1.29843 -0.56079,-1.6457 -0.29287,-0.72756 -1.12661,-2.43228 -2.50747,-5.14821 -1.28093,-2.86155 -2.0702,-4.98522 -2.37181,-6.35873 -0.35685,-1.62508 -0.2206,-2.76946 0.40849,-3.43244 0.60191,-0.78841 1.64245,-1.34646 3.12843,-1.67804 1.11473,-0.24874 2.18427,-0.42295 3.20835,-0.52202 1.02442,-0.0991 1.92567,-0.17137 2.70449,-0.21609 0.18755,-0.0424 0.37519,-0.0848 0.56291,-0.12728 0.75091,-0.16987 1.34971,-0.43686 1.7951,-0.80041 0.41716,-0.48846 0.58345,-0.91994 0.49841,-1.29448 -0.11342,-0.49951 -0.71534,-0.82185 -1.80256,-0.96937 -0.96191,-0.17592 -2.3168,-0.0658 -4.05869,0.32622 -5.34868,1.20379 -8.17618,3.45954 -8.59961,6.82768 -0.19114,1.48237 -0.0427,3.35077 0.44694,5.6015 0.43458,1.99763 1.43765,5.12712 3.01413,9.3646 z m 142.3562,51.80054 c 3.60421,-3.56842 5.47246,-9.99284 5.29435,-19.18137 -0.067,-3.45698 -0.43161,-6.84347 -1.12957,-10.15829 -0.57678,-3.44706 -1.28072,-6.17937 -2.11182,-8.20632 -0.41894,-1.14044 -0.95444,-1.70022 -1.59932,-1.67751 -0.25801,0.009 -0.44449,0.20817 -0.55885,0.59679 -0.11447,0.38898 -0.0277,0.96159 0.25645,1.72021 0.42534,1.13563 0.94529,3.17131 1.53931,6.09702 0.59452,2.92818 0.92417,5.92845 1.01376,9.00056 0.26792,9.1879 -1.74029,15.69385 -5.6877,19.4461 -0.0868,0.0728 -0.16748,0.14653 -0.24199,0.22108 0,0 0,0 0,0 -0.48542,0.48466 -0.71036,1.00475 -0.67832,1.55829 0.0296,0.51119 0.22463,0.94882 0.58248,1.31429 0.0817,0.0553 0.16891,0.10345 0.2618,0.14439 0,0 0,0 0,0 0.30513,0.13525 0.67109,0.19238 1.09836,0.1721 0.55719,-0.0264 1.20789,-0.37616 1.96106,-1.04734 z m -48.78811,7.06782 c 4.58662,-3.80005 6.298,-9.54985 5.0123,-17.24281 -0.42197,-2.52488 -1.17084,-5.1274 -2.261,-7.79933 -0.37642,-0.71551 -0.81432,-1.03101 -1.31254,-0.94589 -0.49855,0.0852 -0.60852,0.55911 -0.33217,1.4208 0.42278,0.96756 0.83798,2.64808 1.24948,5.04652 1.1096,6.46744 -0.1049,11.58338 -3.5473,15.32626 0,0 0,0 0,0 -0.51722,0.56327 -1.08555,1.09717 -1.70535,1.60217 -0.4114,0.46696 -0.56949,0.95243 -0.47509,1.45563 0.14164,0.75492 0.56025,1.32731 1.25278,1.71967 0.63853,0.19776 1.22187,0.10821 1.7526,-0.26913 0.125,-0.0887 0.24709,-0.19329 0.36629,-0.31389 z m 52.18072,10.30101 c 0.36928,-7.92104 0.76266,-14.01518 1.10473,-18.08999 1.35514,-19.53824 1.85846,-32.24086 1.72147,-41.75574 -0.10779,-7.48608 -0.43118,-18.08351 -1.94947,-30.28281 -0.37991,-4.62004 -0.59437,-7.71959 -0.62925,-9.40073 -0.16217,-7.81542 1.3089,-13.15581 4.61358,-16.00327 3.28824,-2.96195 9.23898,-4.44825 17.85003,-3.99288 5.19912,0.27494 9.42049,1.26926 12.56271,2.85416 3.30536,1.60046 5.65896,3.35884 7.07075,5.20605 1.5724,1.86587 3.12842,4.32924 4.62066,7.38343 0.12135,0.2757 1.19285,-0.54526 3.28527,-2.42791 0.11119,-0.10576 0.22511,-0.2107 0.34179,-0.31482 2.10243,-1.86414 5.1077,-3.46622 9.03508,-4.697 4.14236,-1.29814 9.26064,-1.29413 15.1661,0.18077 13.35319,3.33499 22.17563,11.19984 25.7501,22.02876 3.6129,10.94535 2.50361,23.43319 -2.43302,37.68177 -1.32838,3.59904 -2.41366,6.29885 -3.20345,8.03418 -3.64997,8.01966 -8.13091,15.02147 -13.01276,21.10837 -4.88121,6.08609 -10.00195,10.65489 -15.17826,13.76491 -5.07143,3.04701 -9.82865,3.87784 -14.77988,2.53261 -5.05503,-1.37344 -8.59341,-3.39129 -10.72017,-6.41557 -1.90165,-2.84938 -3.31685,-5.43154 -4.15621,-7.8229 -0.087,-0.24688 -0.16779,-0.49145 -0.24227,-0.73377 -0.66978,-2.69772 -1.17096,-3.93305 -1.42462,-3.7113 -0.49102,0.31801 -0.6645,1.19615 -0.54119,2.63708 0.24456,1.54545 0.65117,3.62838 1.23996,6.79098 0.0264,0.11271 0.0628,0.28213 0.1083,0.50643 0.16069,0.79723 0.4834,2.52654 0.86925,4.90443 0.4978,3.06789 0.65388,6.02592 0.5222,8.86265 -0.0163,2.73355 -0.348,5.72404 -0.95817,8.99983 -1.25259,6.72464 -3.48019,11.63202 -6.29721,14.67038 0,0 0,0 0,0 -0.28469,0.30132 -0.57706,0.58536 -0.87725,0.85224 -3.27636,3.10466 -6.90657,4.44129 -11.39138,4.14744 -10.62659,-0.69627 -17.49617,-9.18025 -18.06742,-27.49778 z m 6.52728,-96.33016 c 0.1489,1.02418 0.51844,1.85673 1.10492,2.49883 0.73429,0.51489 1.46614,0.77644 2.20121,0.78476 0.88175,0.01 1.47504,-0.2996 1.78106,-0.9347 0.45302,-0.63151 0.54869,-1.65513 0.27463,-3.06823 -0.8246,-4.25164 -1.2481,-7.43535 -1.22021,-9.62311 0.0294,-2.30488 0.58948,-3.83335 1.70049,-4.5813 1.11151,-0.87474 2.93281,-1.28406 5.45987,-1.18919 0.88906,0.0334 3.37169,0.25392 7.10598,0.73627 0.23802,0.0147 0.47611,0.0296 0.71427,0.0448 1.27066,0.0813 2.2323,0.0226 2.88879,-0.18582 0.82454,-0.32415 1.25423,-0.67438 1.28363,-1.05759 0.0489,-0.6371 -0.55302,-1.2001 -1.81286,-1.67514 -1.25683,-0.47391 -3.10032,-0.79171 -5.50342,-0.91855 -11.16708,-0.5894 -16.45384,4.52865 -16.43359,14.17558 0.002,1.02802 0.15675,2.68497 0.45523,4.99335 z m 40.30251,38.6838 c 2.06056,0.36323 3.82751,-0.52832 5.35224,-2.7044 1.52157,-2.17158 2.65279,-4.88309 3.33121,-8.13832 0.70564,-3.38582 0.70452,-6.45558 -0.0743,-9.22523 -0.61041,-2.86183 -2.02804,-4.50819 -4.20909,-4.89227 -1.71519,-0.30203 -3.26746,0.11765 -4.62617,1.24653 0,0 0,0 0,0 -0.4811,0.40114 -0.9379,0.89124 -1.37019,1.47008 -1.49162,2.10956 -2.45404,4.87623 -2.94691,8.29897 -0.49215,3.41775 -0.3125,6.54977 0.46805,9.38384 0.1739,0.58868 0.3735,1.12086 0.599,1.59655 0,0 0,0 0,0 0.81347,1.71571 1.96201,2.69733 3.47615,2.96425 z m -18.60853,77.70203 c 1.2433,-1.21223 2.30767,-2.67543 3.1859,-4.39589 1.06922,-2.11706 1.87717,-4.63925 2.35985,-7.55838 0.50473,-3.05246 0.60138,-6.01429 0.21755,-8.8966 0,0 0,0 0,0 -0.0458,-0.33904 -0.0982,-0.6769 -0.15749,-1.01355 -0.09,-0.66264 -0.32575,-1.02432 -0.70532,-1.08281 -0.39813,0.0681 -0.55654,0.49763 -0.47989,1.28599 0.32398,2.37866 0.28651,4.70948 -0.063,6.98534 -0.69752,4.54254 -2.65905,8.4536 -5.6167,11.79284 -0.29907,0.34855 -0.47086,0.71407 -0.51756,1.09508 -0.0934,0.76206 0.0446,1.35929 0.40552,1.79352 0.36123,0.43461 0.81413,0.43152 1.3711,-0.006 z"
       id="path7"
       aria-label="Jump"
       inkscape:linked-fill="path5"
       inkscape:path-effect="#path-effect8"
       inkscape:original-d="m 77.349405,278.48707 c -3.84,-5.12 -5.76,-11.2 -5.76,-18.24 0,-5.632 1.28,-10.816 3.84,-15.552 3.84,-7.168 10.432,-10.752 19.776,-10.752 5.887995,0 9.855995,-0.576 11.903995,-1.728 2.176,-1.28 3.456,-3.328 3.84,-6.144 0.512,-2.688 0.768,-5.568 0.768,-8.64 0,-2.944 -0.32,-6.016 -0.96,-9.216 -0.512,-3.2 -1.088,-6.336 -1.728,-9.408 -0.768,-3.072 -1.472,-6.336 -2.112,-9.792 -0.64,-3.456 -1.024,-6.848 -1.152,-10.176 -0.256,-7.808 1.536,-13.76 5.376,-17.856 3.84,-4.224 9.088,-6.336 15.744,-6.336 8.192,0 14.4,1.856 18.624,5.568 4.224,3.584 6.336,10.048 6.336,19.392 0,2.944 -0.44497,6.47204 0.27625,9.58271 -2.86869,2.40828 -4.77431,5.0812 -4.93391,9.55966 -0.67653,5.68317 0.88033,24.7776 0.768,30.11605 0.384,4.224 0.0327,12.86099 -0.47756,21.97446 -0.51022,9.11347 2.97365,14.37095 -10.55689,30.71425 -6.03855,5.72965 -11.82789,9.92487 -22.32389,10.56487 -1.664,0.128 -4.032,0.192 -7.104,0.192 -6.784,0 -12.543995,-1.024 -17.279995,-3.072 -4.736,-2.048 -9.024,-5.632 -12.864,-10.752 z m 33.215995,-95.232 c 0,0.896 0.192,1.664 0.576,2.304 0.512,0.512 1.088,0.768 1.728,0.768 0.768,0 1.344,-0.384 1.728,-1.152 0.384,-0.896 0.448,-2.048 0.192,-3.456 -0.896,-5.12 -1.344,-8.64 -1.344,-10.56 0,-2.56 0.576,-4.352 1.728,-5.376 1.152,-1.024 3.072,-1.536 5.76,-1.536 1.792,0 3.264,0.064 4.416,0.192 h 1.344 c 1.408,0 2.496,-0.192 3.264,-0.576 0.896,-0.512 1.344,-1.088 1.344,-1.728 0,-0.64 -0.512,-1.152 -1.536,-1.536 -0.896,-0.512 -2.112,-0.704 -3.648,-0.576 -6.272,0.512 -10.496,2.048 -12.672,4.608 -2.048,2.432 -3.072,6.72 -3.072,12.864 0,2.432 0.064,4.352 0.192,5.76 z m 5.76,100.992 c 1.536,0.256 2.688,0.384 3.456,0.384 5.248,0 9.984,-2.112 14.208,-6.336 4.352,-4.352 6.912,-10.112 7.68,-17.28 l 0.192,-1.728 c 0,-1.536 -0.256,-2.304 -0.768,-2.304 -0.384,0 -0.768,0.448 -1.152,1.344 -0.384,0.896 -0.64,2.112 -0.768,3.648 -0.896,5.888 -3.328,10.496 -7.296,13.824 -3.84,3.2 -8.192,4.608 -13.056,4.224 h -1.152 c -1.28,0 -2.304,0.192 -3.072,0.576 -0.64,0.384 -0.96,0.832 -0.96,1.344 0,1.152 0.896,1.92 2.688,2.304 z m 31.04421,-70.24451 c -0.128,-0.896 -0.50417,-8.79549 -0.50417,-10.58749 0,-6.528 1.792,-11.392 5.376,-14.592 3.712,-3.328 8.896,-4.992 15.552,-4.992 15.488,0 22.912,7.68 22.272,23.04 -0.256,3.584 -0.512,9.664 -0.768,18.24 l -0.192,6.528 c -0.128,1.024 -0.192,2.432 -0.192,4.224 0,2.048 0.192,3.584 0.576,4.608 0.512,0.896 1.472,1.344 2.88,1.344 1.28,0 2.112,-0.704 2.496,-2.112 0.512,-1.536 0.768,-3.84 0.768,-6.912 0,-3.328 -0.064,-6.016 -0.192,-8.064 l -0.192,-4.224 c 0,-2.816 0.064,-4.928 0.192,-6.336 l 0.192,-6.72 c 0,-8.448 1.984,-14.336 5.952,-17.664 4.096,-3.456 9.664,-5.184 16.704,-5.184 6.912,0 15.0833,3.84468 17.26384,7.80522 -0.96494,2.71892 -0.75546,5.54068 0.71412,13.03543 0.69701,5.70128 1.90579,8.37927 1.52179,17.97927 -0.256,3.584 -0.61812,5.95983 -0.61812,7.75183 -0.256,4.096 -1.15421,8.23341 -2.49112,14.24347 -0.82965,4.56629 -0.73666,2.87469 -1.62468,11.31028 -0.12327,2.95257 -0.81773,13.28348 -0.43854,14.92854 1.00352,5.97636 3.30301,10.02748 4.0781,11.12536 -2.58068,4.02445 -7.39739,8.1886 -13.41339,8.1886 -4.736,0 -8.256,-1.088 -10.56,-3.264 -2.176,-2.304 -3.712,-4.544 -4.608,-6.72 -0.896,-2.304 -1.472,-3.456 -1.728,-3.456 -0.384,0 -1.536,1.344 -3.456,4.032 -1.92,2.56 -4.8,4.928 -8.64,7.104 -3.84,2.176 -8.832,3.264 -14.976,3.264 -10.368,0 -18.304,-2.816 -23.808,-8.448 -5.376,-5.76 -8.064,-15.808 -8.064,-30.144 0,-1.536 0.128,-4.608 0.384,-9.216 0.256,-5.12 0.384,-8.768 0.384,-10.944 -0.256,-13.056 -0.48392,-14.84239 -0.83983,-19.17251 z m 5.44783,-5.01949 c 0.128,0.896 0.384,1.664 0.768,2.304 0.512,0.512 1.024,0.768 1.536,0.768 0.64,0 1.088,-0.32 1.344,-0.96 0.384,-0.64 0.512,-1.6 0.384,-2.88 -0.256,-2.688 -0.512,-4.672 -0.768,-5.952 -0.256,-2.56 -0.384,-4.16 -0.384,-4.8 0,-1.408 0.256,-2.432 0.768,-3.072 0.896,-1.536 3.072,-2.304 6.528,-2.304 1.792,0 3.136,0.064 4.032,0.192 h 0.576 c 0.896,0 1.6,-0.128 2.112,-0.384 0.512,-0.384 0.768,-0.832 0.768,-1.344 0,-1.152 -1.6,-1.728 -4.8,-1.728 -2.176,0 -4.288,0.384 -6.336,1.152 -2.048,0.768 -3.584,1.984 -4.608,3.648 -1.024,1.408 -1.664,3.2 -1.92,5.376 -0.128,2.048 -0.128,5.376 0,9.984 z m 47.808,0 c 0,0.896 0.192,1.664 0.576,2.304 0.512,0.512 1.024,0.768 1.536,0.768 0.512,0 0.96,-0.256 1.344,-0.768 0.384,-0.64 0.576,-1.472 0.576,-2.496 0,-2.048 -0.128,-4.48 -0.384,-7.296 l -0.192,-3.84 c 0,-1.408 0.256,-2.56 0.768,-3.456 1.024,-1.408 3.264,-2.112 6.72,-2.112 1.792,0 3.136,0.064 4.032,0.192 h 0.576 c 0.896,0 1.6,-0.128 2.112,-0.384 0.64,-0.384 0.96,-0.832 0.96,-1.344 0,-1.152 -1.6,-1.728 -4.8,-1.728 -2.176,0 -4.288,0.384 -6.336,1.152 -2.048,0.768 -3.648,1.984 -4.8,3.648 -1.152,1.408 -1.856,3.2 -2.112,5.376 -0.256,2.048 -0.448,5.376 -0.576,9.984 z m 27.84,75.648 c 4.224,-2.816 4.96858,-7.09012 4.42399,-11.31736 -0.29763,-2.31029 -0.18612,-3.34382 -0.29355,-7.60684 -0.0219,-0.61192 0.25887,-5.16719 0.2723,-7.00511 0.57922,-4.54986 0.0398,-2.61513 -0.13347,2.20246 -0.0195,2.35454 0.0835,0.39656 -0.0226,2.08628 0.0219,1.39706 -0.33788,2.99469 -0.33788,4.40269 0,6.784 -1.66873,11.34988 -6.02073,14.16588 -0.384,0.384 -0.576,0.768 -0.576,1.152 0,0.768 0.256,1.408 0.768,1.92 0.64,0.512 1.28,0.512 1.92,0 z m 4.23609,-21.12 c 0.128,-4.352 0.448,-8.384 0.96,-12.096 0.64,-3.84 1.28,-7.296 1.92,-10.368 1.408,-7.552 2.112,-14.272 2.112,-20.16 0,-1.408 -0.128,-4.16 -0.384,-8.256 -0.128,-1.28 -0.32,-2.752 -0.576,-4.416 -0.256,-1.664 -0.448,-2.944 -0.576,-3.84 -0.768,-4.096 -1.152,-6.912 -1.152,-8.448 0,-3.84 1.536,-6.784 4.608,-8.832 3.072,-2.048 8.704,-3.072 16.896,-3.072 6.784,0 11.648,1.216 14.592,3.648 2.944,2.304 4.864,4.544 5.76,6.72 1.024,2.176 1.664,3.264 1.92,3.264 0.512,0 1.472,-0.832 2.88,-2.496 3.2,-3.456 6.464,-6.272 9.792,-8.448 3.328,-2.176 7.424,-3.264 12.288,-3.264 4.608,0 8.576,0.96 11.904,2.88 3.456,1.92 6.592,5.184 9.408,9.792 3.456,-3.072 7.488,-5.952 12.096,-8.64 4.736,-2.688 9.664,-4.032 14.784,-4.032 8.832,0 16.128,3.136 21.888,9.408 5.98525,6.55354 5.976,16.14123 6.82465,29.53696 0.18416,1.28 0.47135,5.15104 0.47135,7.71104 0,4.608 -0.19821,10.705 -0.3605,14.62304 -0.19037,4.60948 -0.26679,7.5755 -0.58043,13.65861 -0.0186,6.96816 -0.12459,10.90622 -0.37912,13.96766 -0.58531,7.04 -0.61517,7.07016 -1.49432,15.30857 -4.352,3.584 -10.11363,5.61012 -18.68963,5.61012 -14.72,0 -22.08,-8.128 -22.08,-24.384 0,-3.968 0.128,-9.664 0.384,-17.088 l 0.192,-14.592 c 0,-5.504 -0.256,-9.792 -0.768,-12.864 -0.384,-3.2 -1.216,-5.056 -2.496,-5.568 -1.664,-0.64 -3.072,-0.32 -4.224,0.96 -1.024,1.28 -1.536,2.816 -1.536,4.608 0,4.608 0.704,12.8 2.112,24.576 1.024,8.96 1.536,14.976 1.536,18.048 0,8.064 -1.728,14.464 -5.184,19.2 -3.328,4.736 -9.536,7.104 -18.624,7.104 -7.424,0 -12.992,-1.728 -16.704,-5.184 -3.712,-3.584 -5.568,-9.984 -5.568,-19.2 0,-4.992 0.384,-11.968 1.152,-20.928 0.256,-2.048 0.512,-4.992 0.768,-8.832 0.256,-4.096 0.384,-6.976 0.384,-8.64 0,-4.096 -0.384,-7.168 -1.152,-9.216 -0.768,-2.048 -2.176,-3.072 -4.224,-3.072 -0.768,0 -1.344,0.064 -1.728,0.192 -1.024,0.256 -1.792,0.896 -2.304,1.92 -0.384,0.896 -0.576,2.496 -0.576,4.8 0,3.328 0.256,7.36 0.768,12.096 l 0.96,7.488 c 1.152,8.96 1.728,15.744 1.728,20.352 0,9.728 -2.432,16.768 -7.296,21.12 -4.736,4.224 -10.88,6.336 -18.432,6.336 -7.424,0 -13.44,-2.432 -18.048,-7.296 -4.48,-4.992 -6.464,-12.224 -5.952,-21.696 z m 7.872,-54.528 c 0.128,0.896 0.448,1.664 0.96,2.304 0.512,0.512 1.024,0.768 1.536,0.768 1.024,0 1.536,-0.704 1.536,-2.112 0,-0.768 -0.064,-1.344 -0.192,-1.728 -0.128,-0.768 -0.576,-2.624 -1.344,-5.568 -0.64,-3.072 -0.96,-5.312 -0.96,-6.72 0,-1.664 0.384,-2.752 1.152,-3.264 0.768,-0.64 1.92,-0.96 3.456,-0.96 1.152,0 2.24,0.064 3.264,0.192 1.024,0.128 1.92,0.256 2.688,0.384 h 0.576 c 0.768,0 1.408,-0.128 1.92,-0.384 0.512,-0.384 0.768,-0.768 0.768,-1.152 0,-0.512 -0.512,-0.96 -1.536,-1.344 -0.896,-0.384 -2.24,-0.576 -4.032,-0.576 -5.504,0 -8.832,1.6 -9.984,4.8 -0.512,1.408 -0.768,3.264 -0.768,5.568 0,2.048 0.32,5.312 0.96,9.792 z m 132.864,76.224 c 4.352,-3.456 6.528,-9.792 6.528,-19.008 0,-3.456 -0.32,-6.848 -0.96,-10.176 -0.512,-3.456 -1.152,-6.208 -1.92,-8.256 -0.384,-1.152 -0.896,-1.728 -1.536,-1.728 -0.256,0 -0.448,0.192 -0.576,0.576 -0.128,0.384 -0.064,0.96 0.192,1.728 0.384,1.152 0.832,3.2 1.344,6.144 0.512,2.944 0.768,5.952 0.768,9.024 0,9.216 -2.368,15.616 -7.104,19.2 -0.768,0.512 -1.152,1.088 -1.152,1.728 0,0.512 0.192,0.96 0.576,1.344 0.384,0.256 0.896,0.384 1.536,0.384 0.64,0 1.408,-0.32 2.304,-0.96 z m -54.144,1.152 c 5.504,-2.944 8.256,-8.32 8.256,-16.128 0,-2.56 -0.32,-5.248 -0.96,-8.064 -0.256,-0.768 -0.64,-1.152 -1.152,-1.152 -0.512,0 -0.704,0.448 -0.576,1.344 0.256,1.024 0.384,2.752 0.384,5.184 0,7.552 -2.816,12.8 -8.448,15.744 -0.512,0.384 -0.768,0.832 -0.768,1.344 0,0.768 0.32,1.408 0.96,1.92 0.768,0.384 1.536,0.32 2.304,-0.192 z m 57.41999,16.32 c 0.768,-7.936 1.408,-13.952 1.92,-18.048 2.048,-18.944 2.68179,-32.73992 2.68179,-41.69992 0,-7.68 -0.18579,-17.88408 -1.33779,-30.30008 -0.256,-4.608 -0.384,-7.744 -0.384,-9.408 0,-7.808 1.344,-13.12 4.032,-15.936 2.688,-2.944 7.424,-4.416 14.208,-4.416 4.096,0 7.424,0.64 9.984,1.92 2.688,1.28 4.672,2.752 5.952,4.416 1.408,1.664 2.88,3.904 4.416,6.72 0.128,0.256 0.896,-0.704 2.304,-2.88 1.408,-2.304 3.584,-4.48 6.528,-6.528 2.944,-2.048 6.72,-3.072 11.328,-3.072 10.368,0 18.432,4.416 24.192,13.248 5.76,8.832 9.28,20.736 10.56,35.712 0.256,3.84 0.384,6.72 0.384,8.64 0,8.832 -1.152,17.024 -3.456,24.576 -2.304,7.552 -5.824,13.696 -10.56,18.432 -4.608,4.608 -10.24,6.912 -16.896,6.912 -6.784,0 -11.84,-1.28 -15.168,-3.84 -3.328,-2.688 -5.696,-5.248 -7.104,-7.68 -1.28,-2.56 -2.048,-3.712 -2.304,-3.456 -0.512,0.384 -0.576,1.28 -0.192,2.688 0.512,1.408 1.408,3.584 2.688,6.528 0.256,0.512 1.024,2.24 2.304,5.184 1.28,2.944 2.176,5.824 2.688,8.64 0.64,2.688 0.96,5.696 0.96,9.024 0,7.552 -2.304,13.056 -6.912,16.512 -4.48,3.584 -10.24,5.376 -17.28,5.376 -17.024,0 -25.536,-9.088 -25.536,-27.264 z m 8.256,-96.192 c 0.128,1.024 0.448,1.856 0.96,2.496 0.64,0.512 1.28,0.768 1.92,0.768 0.768,0 1.28,-0.32 1.536,-0.96 0.384,-0.64 0.448,-1.664 0.192,-3.072 -0.768,-4.224 -1.152,-7.424 -1.152,-9.6 0,-2.304 0.448,-3.84 1.344,-4.608 0.896,-0.896 2.368,-1.344 4.416,-1.344 0.768,0 2.688,0.128 5.76,0.384 h 0.576 c 1.024,0 1.792,-0.128 2.304,-0.384 0.64,-0.384 0.96,-0.768 0.96,-1.152 0,-0.64 -0.512,-1.152 -1.536,-1.536 -1.024,-0.384 -2.496,-0.576 -4.416,-0.576 -8.832,0 -13.248,4.864 -13.248,14.592 0,1.024 0.128,2.688 0.384,4.992 z m 39.552,35.328 c 2.048,0 3.584,-1.216 4.608,-3.648 1.024,-2.432 1.536,-5.312 1.536,-8.64 0,-3.456 -0.576,-6.464 -1.728,-9.024 -1.024,-2.688 -2.496,-4.032 -4.416,-4.032 -2.048,0 -3.648,1.216 -4.8,3.648 -1.024,2.304 -1.536,5.184 -1.536,8.64 0,3.456 0.576,6.528 1.728,9.216 1.152,2.56 2.688,3.84 4.608,3.84 z m -7.68,79.68 c 3.712,-3.072 5.568,-7.296 5.568,-12.672 0,-3.456 -0.704,-6.72 -2.112,-9.792 -0.256,-0.64 -0.64,-0.96 -1.152,-0.96 -0.512,0.128 -0.64,0.576 -0.384,1.344 0.896,2.304 1.344,4.608 1.344,6.912 0,4.608 -1.92,8.768 -5.76,12.48 -0.384,0.384 -0.576,0.768 -0.576,1.152 0,0.768 0.32,1.344 0.96,1.728 0.64,0.384 1.344,0.32 2.112,-0.192 z"
       sodipodi:nodetypes="sscsccsccsccscsccccccsssccsccssscscscccsccssccsscccscsccscscccscscscccccsccccccccsccscsscscccccscccscscscssscccccscscccscscsssccccsccccscscccscscscsssccscsscccsccsccscsscccccscscscsccsssccsccscsccscssccscsscscscscssccccssssscscsccccscscsccccscscsccccssscsssscccccscscsccsscsscscscsssscscscscscscscccscsscs"
       transform="rotate(-4.6997138,579.58387,396.80764)"
       inkscape:transform-center-x="21.211573"
       inkscape:transform-center-y="-1.7583071" /><path
       style="font-size:192px;font-family:'Choret Fudyng Bubble';-inkscape-font-specification:'Choret Fudyng Bubble';letter-spacing:-12.66px;fill:#ffc300;fill-opacity:1;fill-rule:nonzero;stroke:#000000;stroke-width:0.808764;stroke-linecap:butt;stroke-linejoin:bevel;stroke-dasharray:none;stroke-opacity:1;paint-order:normal"
       d="m 61.735185,277.69677 c -2.252513,-6.65786 -1.486787,-13.13063 1.682171,-19.41711 2.533584,-5.02605 6.164204,-9.00167 10.578019,-12.14049 6.691856,-4.79737 13.825767,-5.44372 22.372262,-2.64939 5.411733,1.76941 9.355433,2.14129 11.511203,1.50454 2.3355,-0.74022 3.9679,-2.48076 4.92747,-5.15225 1.04797,-2.52314 1.87984,-5.28552 2.53577,-8.28935 0.62878,-2.87945 1.01027,-5.93464 1.20252,-9.17418 0.29369,-3.21223 0.55261,-6.37433 0.78502,-9.474 0.13826,-3.12531 0.4107,-6.41554 0.81358,-9.87842 0.40254,-3.45988 1.00313,-6.81143 1.75128,-10.05373 1.76741,-7.53572 4.3771,-13.14865 7.19415,-16.64107 1.8339,-2.33089 3.6724,-3.82636 5.58577,-4.49086 1.14129,-0.36339 2.3409,-0.45524 3.64503,-0.28292 4.3779,0.57848 7.94571,2.557 10.53056,6.33299 2.56413,3.61313 4.0969,10.12326 4.06712,19.44509 -0.009,2.88172 -0.36484,6.538 0.18767,9.58667 -2.25998,2.397 -3.86235,5.05798 -4.1004,9.52122 -0.69264,5.67092 0.2319,24.79263 0.0146,30.12909 0.28372,4.25466 -0.20728,12.83967 -0.95679,21.96389 -0.37376,4.55028 0.36933,8.16374 -0.72921,12.63446 -1.04383,4.24808 -4.06869,10.06142 -12.7174,17.44721 -6.18841,4.11862 -12.73932,7.22504 -22.17047,7.26988 -2.2587,1.9e-4 -4.69111,-0.17904 -7.31132,-0.57794 -2.15169,-0.30112 -5.293844,-0.89126 -9.220143,-1.85603 -8.737131,-2.14687 -15.787378,-5.51201 -20.940222,-9.55601 -5.168967,-4.05666 -8.984437,-9.5397 -11.23821,-16.20129 z m 60.152445,-79.70348 c -0.19737,0.87453 -0.24184,1.65119 -0.12642,2.33303 0.22777,0.57513 0.55882,0.90934 0.98657,0.99983 0.51394,0.10873 0.97736,-0.18925 1.38292,-0.89103 0.43169,-0.82922 0.69178,-1.94864 0.80204,-3.36435 0.41856,-5.08423 0.90245,-8.68985 1.28158,-10.51745 0.51886,-2.50111 1.21482,-4.1982 2.04009,-5.07172 0.7461,-0.78973 1.73335,-1.11306 2.98621,-0.99512 0,0 0,0 0,0 0.1467,0.016 0.29741,0.0378 0.45228,0.0653 1.00994,0.17894 1.84173,0.36917 2.49709,0.59219 0.26053,0.0371 0.5223,0.073 0.78529,0.10788 0.82695,0.10956 1.50052,-0.007 2.00062,-0.33772 0.59181,-0.45045 0.91729,-0.99651 0.98263,-1.63292 0.0654,-0.63721 -0.18665,-1.17442 -0.73745,-1.622 -0.4627,-0.56673 -1.13204,-0.83785 -2.00938,-0.82914 -1.29142,0.009 -2.42595,0.14207 -3.43338,0.41401 -1.7405,0.51244 -3.15323,1.47091 -4.23784,2.91657 -1.5754,2.11557 -3.15096,6.23107 -4.50233,12.18662 -0.5393,2.37672 -0.92258,4.24896 -1.15052,5.64606 z M 106.8404,298.01036 c 1.86957,0.61284 3.30871,0.98906 4.26867,1.14935 0.14686,0.0245 0.29359,0.0478 0.44019,0.0698 0,0 0,0 0,0 6.41623,0.94263 12.45904,-0.48244 17.7856,-4.14947 5.62614,-3.87327 8.85067,-9.50132 10.05919,-16.60825 0.0998,-0.57159 0.19898,-1.14324 0.29767,-1.71496 0.0752,-1.53398 -0.16632,-2.31435 -0.72473,-2.34424 -0.41882,-0.0224 -0.86126,0.40131 -1.33492,1.27064 -0.47324,0.86857 -0.8313,2.06561 -1.06926,3.5885 -1.36353,5.80628 -4.45544,10.24267 -9.52158,13.08523 -4.44611,2.47705 -9.43752,3.30329 -14.74848,2.38916 -0.53134,-0.093 -1.06513,-0.20357 -1.60099,-0.33164 -0.47209,-0.0817 -0.94395,-0.16512 -1.41556,-0.25019 -1.57264,-0.28366 -2.86109,-0.33963 -3.88065,-0.15135 -0.86115,0.21945 -1.34629,0.57535 -1.44983,1.07735 -0.23187,1.12427 0.71997,2.11797 2.89468,2.92003 z m 39.96015,-66.31161 c -0.10176,-0.97841 -0.22759,-8.7245 -0.17991,-10.59607 0.16563,-6.50098 1.77435,-11.37513 4.57939,-14.54732 2.92034,-3.31622 6.85717,-5.04588 12.15904,-5.34106 0.0278,-0.002 0.0556,-0.003 0.0834,-0.005 12.41305,-0.69549 20.14699,5.54764 21.57376,21.02267 0.23131,3.58495 0.78027,9.64384 1.63156,18.18108 0.21692,2.16594 0.43271,4.33199 0.64739,6.49816 0.005,1.03097 0.12022,2.43721 0.34785,4.21371 0.2604,2.03218 0.64691,3.52917 1.16615,4.49537 0.63098,0.82119 1.66105,1.13935 3.08442,0.94373 1.29454,-0.17791 2.03535,-0.99644 2.2206,-2.44534 0.29607,-1.5967 0.21789,-3.91014 -0.22548,-6.95237 -0.47967,-3.29126 -0.93113,-5.94702 -1.34902,-7.95357 -0.26439,-1.38451 -0.52813,-2.76912 -0.79121,-4.15383 -0.40327,-2.78532 -0.64535,-4.88855 -0.727,-6.29776 -0.26171,-2.22582 -0.52446,-4.45152 -0.78824,-6.67709 -1.21553,-8.34044 -0.25694,-14.46919 2.74754,-18.29862 2.89431,-3.71178 7.11508,-6.17535 12.86357,-7.47614 0,0 0,0 0,0 0.44849,-0.10268 0.90623,-0.1985 1.37334,-0.28751 6.26863,-1.19454 14.80651,0.9487 17.69841,4.36317 -0.34866,2.84288 0.42849,5.58619 3.41366,12.59924 1.85791,5.40043 3.62026,7.82291 5.26395,17.2572 0.50504,3.5575 0.64777,5.95706 1.025,7.70885 0.60798,4.05049 0.59157,8.30311 0.50372,14.45803 0.12254,4.757 -0.14509,2.85471 0.70872,11.41076 0.48198,2.89675 1.91168,13.19059 2.63289,14.70071 2.26794,5.63714 5.48805,9.0803 6.52596,9.98609 -1.82387,4.50474 -5.98786,9.65496 -12.41862,10.93598 -2.67239,0.53234 -5.05746,0.68344 -7.13612,0.45809 -1.84859,-0.19754 -3.45594,-0.69491 -4.8131,-1.4875 -2.76814,-1.83555 -4.81842,-3.75036 -6.15802,-5.72704 -1.36128,-2.10251 -2.17241,-3.13355 -2.44788,-3.08668 -0.41322,0.0703 -1.41939,1.60716 -3.08186,4.60105 -1.67924,2.86106 -4.48816,5.71697 -8.49767,8.47726 -4.00543,2.75749 -9.60563,4.59746 -16.78576,5.31178 -5.01977,0.4994 -9.66132,0.38072 -13.84221,-0.321 -5.94111,-0.98234 -10.94252,-3.17772 -14.8384,-6.43417 -6.58881,-5.76746 -9.33274,-15.81979 -9.00418,-30.20324 0.0356,-1.56003 0.24319,-4.58034 0.60583,-9.2068 0.3698,-5.0902 0.56551,-8.78487 0.60715,-10.93665 0.002,-13.25189 -0.15192,-14.66118 -0.37865,-19.18838 z m 4.87514,-4.97527 c 0.11328,0.89632 0.34033,1.66379 0.68448,2.30249 0.45725,0.50984 0.91727,0.76211 1.375,0.75687 0.57257,-0.007 0.96919,-0.33338 1.18688,-0.97735 0.33235,-0.64694 0.42633,-1.60787 0.2904,-2.88705 -0.274,-2.68481 -0.52657,-4.66599 -0.76434,-5.9431 -0.25594,-2.54864 -0.38335,-4.16607 -0.39174,-4.79725 -0.0187,-1.40764 0.18032,-2.43684 0.59002,-3.0831 0.71266,-1.55195 2.46316,-2.34495 5.31097,-2.45737 1.48331,-0.0585 2.59927,-0.0508 3.35731,0.0385 0.16021,-0.008 0.32053,-0.0168 0.48095,-0.0254 0.025,-0.001 0.0497,-0.003 0.0743,-0.004 0.71672,-0.0487 1.27706,-0.21206 1.67725,-0.48591 0.40532,-0.41099 0.58898,-0.87271 0.55298,-1.38336 -0.0618,-0.87613 -0.87999,-1.36097 -2.43332,-1.48272 -0.48115,-0.0394 -1.03276,-0.0436 -1.65519,-0.0141 -1.78219,0.0846 -3.47646,0.53225 -5.11402,1.34558 -1.63522,0.81216 -2.85679,2.04745 -3.67606,3.7203 -0.82051,1.41488 -1.34494,3.21357 -1.55614,5.38893 -0.104,2.03503 -0.10647,5.39281 0.0103,9.98849 z m 43.43685,-3.83012 c 0.13955,0.88532 0.43887,1.6157 0.90088,2.19035 0.56235,0.42892 1.08658,0.60382 1.57013,0.52513 0.4836,-0.0787 0.86587,-0.40112 1.14489,-0.96641 0.25826,-0.6919 0.30218,-1.54259 0.13393,-2.55319 -0.33679,-2.02291 -0.85604,-4.39828 -1.55357,-7.14004 -0.26842,-1.25334 -0.53634,-2.50678 -0.80373,-3.76031 -0.22956,-1.38907 -0.18339,-2.5657 0.13491,-3.52699 0.70083,-1.54623 2.61208,-2.57861 5.78037,-3.1444 1.64683,-0.29409 2.89595,-0.45857 3.75037,-0.48561 0.17765,-0.0327 0.35539,-0.0656 0.53323,-0.0985 0.19747,-0.0366 0.38365,-0.0785 0.55849,-0.12569 0,0 0,0 0,0 0.55947,-0.15246 1.00235,-0.35951 1.32769,-0.62015 0.52176,-0.49051 0.73369,-0.98761 0.63666,-1.49029 -0.15662,-0.81142 -1.01871,-1.18248 -2.57674,-1.12766 -0.61665,0.0204 -1.3413,0.10714 -2.17357,0.25909 -1.99685,0.36459 -3.85117,1.08474 -5.57895,2.16323 -1.72667,1.07779 -2.97141,2.51896 -3.74676,4.33262 -0.81605,1.55977 -1.17408,3.43452 -1.06663,5.62032 0.0873,2.05734 0.43091,5.37974 1.0284,9.94848 z m 41.68428,69.22885 c 3.85833,-3.66361 3.72072,-8.03041 2.29076,-12.03665 -0.781,-2.18806 -0.88386,-3.23907 -1.87066,-7.37926 -0.14855,-0.59402 -0.80158,-5.11143 -1.1673,-6.91254 -0.35069,-4.57569 -0.4986,-2.56732 0.3187,2.18355 0.46537,2.30567 0.16738,0.37234 0.40728,2.04614 0.3105,1.36223 0.27177,3.00292 0.56168,4.38066 1.3952,6.63041 0.63014,11.47734 -3.37188,15.16171 -0.32641,0.45815 -0.45217,0.87519 -0.37598,1.2516 0.15235,0.75274 0.54856,1.3254 1.18964,1.71757 0.77565,0.36468 1.44942,0.22682 2.01782,-0.4128 -2e-5,1e-5 -4e-5,1e-5 -6e-5,2e-5 z m 0.0754,-21.58714 c -0.76669,-4.2847 -1.27372,-8.30022 -1.52668,-12.0397 -0.15052,-3.89338 -0.22909,-7.40928 -0.23297,-10.55006 -0.17432,-7.67884 -0.90605,-14.40932 -2.14685,-20.15828 -0.29789,-1.38022 -1.0024,-4.0352 -2.11512,-7.98938 -0.39419,-1.22483 -0.8902,-2.62275 -1.48775,-4.19666 -0.59636,-1.57074 -1.052,-2.78795 -1.36215,-3.63479 -1.59703,-3.84201 -2.55176,-6.52642 -2.87115,-8.02436 -0.80017,-3.75284 0.046,-6.94766 2.53476,-9.58237 2.48913,-2.6351 7.64481,-4.82729 15.66158,-6.64843 4.42947,-1.00623 8.19072,-1.31419 11.24867,-0.90479 1.5341,0.20408 2.8882,0.58932 4.05889,1.15671 3.4734,1.57233 5.91084,3.31289 7.29947,5.23182 1.51697,1.88787 2.40504,2.80301 2.66467,2.74445 0.51919,-0.11708 1.30914,-1.14821 2.38052,-3.09361 2.50661,-4.10401 5.25707,-7.59627 8.26024,-10.47543 3.00057,-2.87666 7.08524,-4.86567 12.27793,-5.92805 4.92178,-1.00694 9.41105,-0.90532 13.38622,0.29805 1.31199,0.37534 2.61437,0.89451 3.90461,1.55771 2.75518,1.41314 5.45498,3.4859 8.07733,6.21882 3.24096,-3.67357 7.24663,-7.25948 12.06496,-10.676 4.9688,-3.44162 10.51315,-5.51785 16.52489,-6.17031 8.14433,-0.88391 15.52484,0.48345 21.76066,3.99313 1.71635,0.96157 3.34508,2.08689 4.88134,3.37281 7.34849,6.18569 7.53443,16.03021 8.67981,29.29752 0.22688,1.29763 0.59384,5.12326 0.6329,7.70481 0.0686,4.53301 -0.0458,10.78717 -0.14367,14.63265 -0.11682,4.61377 -0.14489,7.58175 -0.33346,13.6717 0.11173,6.96628 0.0851,10.91423 -0.0854,13.97712 -0.54001,9.70334 -0.25465,4.43119 -0.9727,15.33968 -1.94808,1.96886 -4.21121,3.51821 -7.01416,4.61488 -2.44647,0.95655 -5.29729,1.57926 -8.74958,1.88128 -12.6161,1.1037 -20.62722,-5.60405 -22.9914,-21.80894 -0.56986,-3.90599 -1.2774,-9.60336 -2.08734,-16.96734 -0.63482,-4.82367 -1.26756,-9.64761 -1.8982,-14.47181 -0.78852,-5.45427 -1.66323,-9.64904 -2.64788,-12.61666 -0.86676,-3.10797 -2.02177,-4.81562 -3.45543,-5.11622 -1.86049,-0.36557 -3.30499,0.18733 -4.31475,1.64627 -0.87536,1.43788 -1.16059,3.04252 -0.87041,4.81112 0.75777,4.61858 2.80298,12.4417 6.08206,23.9176 2.42276,8.65058 3.85116,14.59546 4.32036,17.59349 1.24453,7.95201 0.59566,14.5645 -1.80938,19.74744 -1.33156,3.00599 -3.66448,5.38262 -7.03161,7.16071 -2.44077,1.29339 -5.4298,2.28186 -9.00005,2.9894 -6.94898,1.37713 -12.59373,0.83844 -16.90342,-1.76902 -4.32783,-2.72711 -7.52715,-8.56857 -9.51745,-17.56958 -1.07572,-4.8649 -2.21053,-11.77927 -3.3741,-20.68828 -0.18632,-2.05625 -0.56436,-4.98751 -1.13269,-8.79449 -0.62367,-4.05947 -1.11107,-6.89594 -1.46834,-8.52381 -0.87836,-4.00219 -1.92314,-6.91569 -3.14135,-8.746 -1.21735,-1.829 -2.86525,-2.51454 -4.93417,-2.05323 -0.77549,0.17291 -1.34264,0.36545 -1.70179,0.57705 -0.97656,0.48108 -1.60928,1.27951 -1.89921,2.39448 -0.18937,0.96128 -0.0303,2.56544 0.47641,4.81336 0.73211,3.24804 1.87513,7.12128 3.42673,11.6282 0.86761,2.36338 1.73424,4.72705 2.59978,7.09103 3.10855,8.48051 5.15854,14.98496 6.16345,19.47704 2.1214,9.48304 1.27908,16.90786 -2.53058,22.22169 -1.75361,2.43784 -3.92426,4.49227 -6.5252,6.16347 -2.91448,1.87867 -6.37657,3.27903 -10.40492,4.19491 -7.49405,1.70383 -14.23279,0.7105 -20.03071,-3.0145 -5.70946,-3.8903 -9.22342,-10.51692 -10.65622,-19.9083 z m -3.6225,-54.99155 c 0.31554,0.84816 0.7907,1.53045 1.42664,2.04616 0.60854,0.39067 1.16318,0.53078 1.66305,0.42053 1.00029,-0.22063 1.34836,-1.01931 1.04399,-2.39392 -0.16603,-0.74984 -0.35304,-1.29843 -0.56079,-1.6457 -0.29287,-0.72756 -1.12661,-2.43228 -2.50747,-5.14821 -1.28093,-2.86155 -2.0702,-4.98522 -2.37181,-6.35873 -0.35685,-1.62508 -0.2206,-2.76946 0.40849,-3.43244 0.60191,-0.78841 1.64245,-1.34646 3.12843,-1.67804 1.11473,-0.24874 2.18427,-0.42295 3.20835,-0.52202 1.02442,-0.0991 1.92567,-0.17137 2.70449,-0.21609 0.18755,-0.0424 0.37519,-0.0848 0.56291,-0.12728 0.75091,-0.16987 1.34971,-0.43686 1.7951,-0.80041 0.41716,-0.48846 0.58345,-0.91994 0.49841,-1.29448 -0.11342,-0.49951 -0.71534,-0.82185 -1.80256,-0.96937 -0.96191,-0.17592 -2.3168,-0.0658 -4.05869,0.32622 -5.34868,1.20379 -8.17618,3.45954 -8.59961,6.82768 -0.19114,1.48237 -0.0427,3.35077 0.44694,5.6015 0.43458,1.99763 1.43765,5.12712 3.01413,9.3646 z m 142.3562,51.80054 c 3.60421,-3.56842 5.47246,-9.99284 5.29435,-19.18137 -0.067,-3.45698 -0.43161,-6.84347 -1.12957,-10.15829 -0.57678,-3.44706 -1.28072,-6.17937 -2.11182,-8.20632 -0.41894,-1.14044 -0.95444,-1.70022 -1.59932,-1.67751 -0.25801,0.009 -0.44449,0.20817 -0.55885,0.59679 -0.11447,0.38898 -0.0277,0.96159 0.25645,1.72021 0.42534,1.13563 0.94529,3.17131 1.53931,6.09702 0.59452,2.92818 0.92417,5.92845 1.01376,9.00056 0.26792,9.1879 -1.74029,15.69385 -5.6877,19.4461 -0.0868,0.0728 -0.16748,0.14653 -0.24199,0.22108 0,0 0,0 0,0 -0.48542,0.48466 -0.71036,1.00475 -0.67832,1.55829 0.0296,0.51119 0.22463,0.94882 0.58248,1.31429 0.0817,0.0553 0.16891,0.10345 0.2618,0.14439 0,0 0,0 0,0 0.30513,0.13525 0.67109,0.19238 1.09836,0.1721 0.55719,-0.0264 1.20789,-0.37616 1.96106,-1.04734 z m -48.78811,7.06782 c 4.58662,-3.80005 6.298,-9.54985 5.0123,-17.24281 -0.42197,-2.52488 -1.17084,-5.1274 -2.261,-7.79933 -0.37642,-0.71551 -0.81432,-1.03101 -1.31254,-0.94589 -0.49855,0.0852 -0.60852,0.55911 -0.33217,1.4208 0.42278,0.96756 0.83798,2.64808 1.24948,5.04652 1.1096,6.46744 -0.1049,11.58338 -3.5473,15.32626 0,0 0,0 0,0 -0.51722,0.56327 -1.08555,1.09717 -1.70535,1.60217 -0.4114,0.46696 -0.56949,0.95243 -0.47509,1.45563 0.14164,0.75492 0.56025,1.32731 1.25278,1.71967 0.63853,0.19776 1.22187,0.10821 1.7526,-0.26913 0.125,-0.0887 0.24709,-0.19329 0.36629,-0.31389 z m 52.18072,10.30101 c 0.36928,-7.92104 0.76266,-14.01518 1.10473,-18.08999 1.35514,-19.53824 1.85846,-32.24086 1.72147,-41.75574 -0.10779,-7.48608 -0.43118,-18.08351 -1.94947,-30.28281 -0.37991,-4.62004 -0.59437,-7.71959 -0.62925,-9.40073 -0.16217,-7.81542 1.3089,-13.15581 4.61358,-16.00327 3.28824,-2.96195 9.23898,-4.44825 17.85003,-3.99288 5.19912,0.27494 9.42049,1.26926 12.56271,2.85416 3.30536,1.60046 5.65896,3.35884 7.07075,5.20605 1.5724,1.86587 3.12842,4.32924 4.62066,7.38343 0.12135,0.2757 1.19285,-0.54526 3.28527,-2.42791 0.11119,-0.10576 0.22511,-0.2107 0.34179,-0.31482 2.10243,-1.86414 5.1077,-3.46622 9.03508,-4.697 4.14236,-1.29814 9.26064,-1.29413 15.1661,0.18077 13.35319,3.33499 22.17563,11.19984 25.7501,22.02876 3.6129,10.94535 2.50361,23.43319 -2.43302,37.68177 -1.32838,3.59904 -2.41366,6.29885 -3.20345,8.03418 -3.64997,8.01966 -8.13091,15.02147 -13.01276,21.10837 -4.88121,6.08609 -10.00195,10.65489 -15.17826,13.76491 -5.07143,3.04701 -9.82865,3.87784 -14.77988,2.53261 -5.05503,-1.37344 -8.59341,-3.39129 -10.72017,-6.41557 -1.90165,-2.84938 -3.31685,-5.43154 -4.15621,-7.8229 -0.087,-0.24688 -0.16779,-0.49145 -0.24227,-0.73377 -0.66978,-2.69772 -1.17096,-3.93305 -1.42462,-3.7113 -0.49102,0.31801 -0.6645,1.19615 -0.54119,2.63708 0.24456,1.54545 0.65117,3.62838 1.23996,6.79098 0.0264,0.11271 0.0628,0.28213 0.1083,0.50643 0.16069,0.79723 0.4834,2.52654 0.86925,4.90443 0.4978,3.06789 0.65388,6.02592 0.5222,8.86265 -0.0163,2.73355 -0.348,5.72404 -0.95817,8.99983 -1.25259,6.72464 -3.48019,11.63202 -6.29721,14.67038 0,0 0,0 0,0 -0.28469,0.30132 -0.57706,0.58536 -0.87725,0.85224 -3.27636,3.10466 -6.90657,4.44129 -11.39138,4.14744 -10.62659,-0.69627 -17.49617,-9.18025 -18.06742,-27.49778 z m 6.52728,-96.33016 c 0.1489,1.02418 0.51844,1.85673 1.10492,2.49883 0.73429,0.51489 1.46614,0.77644 2.20121,0.78476 0.88175,0.01 1.47504,-0.2996 1.78106,-0.9347 0.45302,-0.63151 0.54869,-1.65513 0.27463,-3.06823 -0.8246,-4.25164 -1.2481,-7.43535 -1.22021,-9.62311 0.0294,-2.30488 0.58948,-3.83335 1.70049,-4.5813 1.11151,-0.87474 2.93281,-1.28406 5.45987,-1.18919 0.88906,0.0334 3.37169,0.25392 7.10598,0.73627 0.23802,0.0147 0.47611,0.0296 0.71427,0.0448 1.27066,0.0813 2.2323,0.0226 2.88879,-0.18582 0.82454,-0.32415 1.25423,-0.67438 1.28363,-1.05759 0.0489,-0.6371 -0.55302,-1.2001 -1.81286,-1.67514 -1.25683,-0.47391 -3.10032,-0.79171 -5.50342,-0.91855 -11.16708,-0.5894 -16.45384,4.52865 -16.43359,14.17558 0.002,1.02802 0.15675,2.68497 0.45523,4.99335 z m 40.30251,38.6838 c 2.06056,0.36323 3.82751,-0.52832 5.35224,-2.7044 1.52157,-2.17158 2.65279,-4.88309 3.33121,-8.13832 0.70564,-3.38582 0.70452,-6.45558 -0.0743,-9.22523 -0.61041,-2.86183 -2.02804,-4.50819 -4.20909,-4.89227 -1.71519,-0.30203 -3.26746,0.11765 -4.62617,1.24653 0,0 0,0 0,0 -0.4811,0.40114 -0.9379,0.89124 -1.37019,1.47008 -1.49162,2.10956 -2.45404,4.87623 -2.94691,8.29897 -0.49215,3.41775 -0.3125,6.54977 0.46805,9.38384 0.1739,0.58868 0.3735,1.12086 0.599,1.59655 0,0 0,0 0,0 0.81347,1.71571 1.96201,2.69733 3.47615,2.96425 z m -18.60853,77.70203 c 1.2433,-1.21223 2.30767,-2.67543 3.1859,-4.39589 1.06922,-2.11706 1.87717,-4.63925 2.35985,-7.55838 0.50473,-3.05246 0.60138,-6.01429 0.21755,-8.8966 0,0 0,0 0,0 -0.0458,-0.33904 -0.0982,-0.6769 -0.15749,-1.01355 -0.09,-0.66264 -0.32575,-1.02432 -0.70532,-1.08281 -0.39813,0.0681 -0.55654,0.49763 -0.47989,1.28599 0.32398,2.37866 0.28651,4.70948 -0.063,6.98534 -0.69752,4.54254 -2.65905,8.4536 -5.6167,11.79284 -0.29907,0.34855 -0.47086,0.71407 -0.51756,1.09508 -0.0934,0.76206 0.0446,1.35929 0.40552,1.79352 0.36123,0.43461 0.81413,0.43152 1.3711,-0.006 z"
       id="text1"
       aria-label="Jump"
       inkscape:linked-fill="path5"
       inkscape:path-effect="#path-effect6"
       inkscape:original-d="m 77.349405,278.48707 c -3.84,-5.12 -5.76,-11.2 -5.76,-18.24 0,-5.632 1.28,-10.816 3.84,-15.552 3.84,-7.168 10.432,-10.752 19.776,-10.752 5.887995,0 9.855995,-0.576 11.903995,-1.728 2.176,-1.28 3.456,-3.328 3.84,-6.144 0.512,-2.688 0.768,-5.568 0.768,-8.64 0,-2.944 -0.32,-6.016 -0.96,-9.216 -0.512,-3.2 -1.088,-6.336 -1.728,-9.408 -0.768,-3.072 -1.472,-6.336 -2.112,-9.792 -0.64,-3.456 -1.024,-6.848 -1.152,-10.176 -0.256,-7.808 1.536,-13.76 5.376,-17.856 3.84,-4.224 9.088,-6.336 15.744,-6.336 8.192,0 14.4,1.856 18.624,5.568 4.224,3.584 6.336,10.048 6.336,19.392 0,2.944 -0.44497,6.47204 0.27625,9.58271 -2.86869,2.40828 -4.77431,5.0812 -4.93391,9.55966 -0.67653,5.68317 0.88033,24.7776 0.768,30.11605 0.384,4.224 0.0327,12.86099 -0.47756,21.97446 -0.51022,9.11347 2.97365,14.37095 -10.55689,30.71425 -6.03855,5.72965 -11.82789,9.92487 -22.32389,10.56487 -1.664,0.128 -4.032,0.192 -7.104,0.192 -6.784,0 -12.543995,-1.024 -17.279995,-3.072 -4.736,-2.048 -9.024,-5.632 -12.864,-10.752 z m 33.215995,-95.232 c 0,0.896 0.192,1.664 0.576,2.304 0.512,0.512 1.088,0.768 1.728,0.768 0.768,0 1.344,-0.384 1.728,-1.152 0.384,-0.896 0.448,-2.048 0.192,-3.456 -0.896,-5.12 -1.344,-8.64 -1.344,-10.56 0,-2.56 0.576,-4.352 1.728,-5.376 1.152,-1.024 3.072,-1.536 5.76,-1.536 1.792,0 3.264,0.064 4.416,0.192 h 1.344 c 1.408,0 2.496,-0.192 3.264,-0.576 0.896,-0.512 1.344,-1.088 1.344,-1.728 0,-0.64 -0.512,-1.152 -1.536,-1.536 -0.896,-0.512 -2.112,-0.704 -3.648,-0.576 -6.272,0.512 -10.496,2.048 -12.672,4.608 -2.048,2.432 -3.072,6.72 -3.072,12.864 0,2.432 0.064,4.352 0.192,5.76 z m 5.76,100.992 c 1.536,0.256 2.688,0.384 3.456,0.384 5.248,0 9.984,-2.112 14.208,-6.336 4.352,-4.352 6.912,-10.112 7.68,-17.28 l 0.192,-1.728 c 0,-1.536 -0.256,-2.304 -0.768,-2.304 -0.384,0 -0.768,0.448 -1.152,1.344 -0.384,0.896 -0.64,2.112 -0.768,3.648 -0.896,5.888 -3.328,10.496 -7.296,13.824 -3.84,3.2 -8.192,4.608 -13.056,4.224 h -1.152 c -1.28,0 -2.304,0.192 -3.072,0.576 -0.64,0.384 -0.96,0.832 -0.96,1.344 0,1.152 0.896,1.92 2.688,2.304 z m 31.04421,-70.24451 c -0.128,-0.896 -0.50417,-8.79549 -0.50417,-10.58749 0,-6.528 1.792,-11.392 5.376,-14.592 3.712,-3.328 8.896,-4.992 15.552,-4.992 15.488,0 22.912,7.68 22.272,23.04 -0.256,3.584 -0.512,9.664 -0.768,18.24 l -0.192,6.528 c -0.128,1.024 -0.192,2.432 -0.192,4.224 0,2.048 0.192,3.584 0.576,4.608 0.512,0.896 1.472,1.344 2.88,1.344 1.28,0 2.112,-0.704 2.496,-2.112 0.512,-1.536 0.768,-3.84 0.768,-6.912 0,-3.328 -0.064,-6.016 -0.192,-8.064 l -0.192,-4.224 c 0,-2.816 0.064,-4.928 0.192,-6.336 l 0.192,-6.72 c 0,-8.448 1.984,-14.336 5.952,-17.664 4.096,-3.456 9.664,-5.184 16.704,-5.184 6.912,0 15.0833,3.84468 17.26384,7.80522 -0.96494,2.71892 -0.75546,5.54068 0.71412,13.03543 0.69701,5.70128 1.90579,8.37927 1.52179,17.97927 -0.256,3.584 -0.61812,5.95983 -0.61812,7.75183 -0.256,4.096 -1.15421,8.23341 -2.49112,14.24347 -0.82965,4.56629 -0.73666,2.87469 -1.62468,11.31028 -0.12327,2.95257 -0.81773,13.28348 -0.43854,14.92854 1.00352,5.97636 3.30301,10.02748 4.0781,11.12536 -2.58068,4.02445 -7.39739,8.1886 -13.41339,8.1886 -4.736,0 -8.256,-1.088 -10.56,-3.264 -2.176,-2.304 -3.712,-4.544 -4.608,-6.72 -0.896,-2.304 -1.472,-3.456 -1.728,-3.456 -0.384,0 -1.536,1.344 -3.456,4.032 -1.92,2.56 -4.8,4.928 -8.64,7.104 -3.84,2.176 -8.832,3.264 -14.976,3.264 -10.368,0 -18.304,-2.816 -23.808,-8.448 -5.376,-5.76 -8.064,-15.808 -8.064,-30.144 0,-1.536 0.128,-4.608 0.384,-9.216 0.256,-5.12 0.384,-8.768 0.384,-10.944 -0.256,-13.056 -0.48392,-14.84239 -0.83983,-19.17251 z m 5.44783,-5.01949 c 0.128,0.896 0.384,1.664 0.768,2.304 0.512,0.512 1.024,0.768 1.536,0.768 0.64,0 1.088,-0.32 1.344,-0.96 0.384,-0.64 0.512,-1.6 0.384,-2.88 -0.256,-2.688 -0.512,-4.672 -0.768,-5.952 -0.256,-2.56 -0.384,-4.16 -0.384,-4.8 0,-1.408 0.256,-2.432 0.768,-3.072 0.896,-1.536 3.072,-2.304 6.528,-2.304 1.792,0 3.136,0.064 4.032,0.192 h 0.576 c 0.896,0 1.6,-0.128 2.112,-0.384 0.512,-0.384 0.768,-0.832 0.768,-1.344 0,-1.152 -1.6,-1.728 -4.8,-1.728 -2.176,0 -4.288,0.384 -6.336,1.152 -2.048,0.768 -3.584,1.984 -4.608,3.648 -1.024,1.408 -1.664,3.2 -1.92,5.376 -0.128,2.048 -0.128,5.376 0,9.984 z m 47.808,0 c 0,0.896 0.192,1.664 0.576,2.304 0.512,0.512 1.024,0.768 1.536,0.768 0.512,0 0.96,-0.256 1.344,-0.768 0.384,-0.64 0.576,-1.472 0.576,-2.496 0,-2.048 -0.128,-4.48 -0.384,-7.296 l -0.192,-3.84 c 0,-1.408 0.256,-2.56 0.768,-3.456 1.024,-1.408 3.264,-2.112 6.72,-2.112 1.792,0 3.136,0.064 4.032,0.192 h 0.576 c 0.896,0 1.6,-0.128 2.112,-0.384 0.64,-0.384 0.96,-0.832 0.96,-1.344 0,-1.152 -1.6,-1.728 -4.8,-1.728 -2.176,0 -4.288,0.384 -6.336,1.152 -2.048,0.768 -3.648,1.984 -4.8,3.648 -1.152,1.408 -1.856,3.2 -2.112,5.376 -0.256,2.048 -0.448,5.376 -0.576,9.984 z m 27.84,75.648 c 4.224,-2.816 4.96858,-7.09012 4.42399,-11.31736 -0.29763,-2.31029 -0.18612,-3.34382 -0.29355,-7.60684 -0.0219,-0.61192 0.25887,-5.16719 0.2723,-7.00511 0.57922,-4.54986 0.0398,-2.61513 -0.13347,2.20246 -0.0195,2.35454 0.0835,0.39656 -0.0226,2.08628 0.0219,1.39706 -0.33788,2.99469 -0.33788,4.40269 0,6.784 -1.66873,11.34988 -6.02073,14.16588 -0.384,0.384 -0.576,0.768 -0.576,1.152 0,0.768 0.256,1.408 0.768,1.92 0.64,0.512 1.28,0.512 1.92,0 z m 4.23609,-21.12 c 0.128,-4.352 0.448,-8.384 0.96,-12.096 0.64,-3.84 1.28,-7.296 1.92,-10.368 1.408,-7.552 2.112,-14.272 2.112,-20.16 0,-1.408 -0.128,-4.16 -0.384,-8.256 -0.128,-1.28 -0.32,-2.752 -0.576,-4.416 -0.256,-1.664 -0.448,-2.944 -0.576,-3.84 -0.768,-4.096 -1.152,-6.912 -1.152,-8.448 0,-3.84 1.536,-6.784 4.608,-8.832 3.072,-2.048 8.704,-3.072 16.896,-3.072 6.784,0 11.648,1.216 14.592,3.648 2.944,2.304 4.864,4.544 5.76,6.72 1.024,2.176 1.664,3.264 1.92,3.264 0.512,0 1.472,-0.832 2.88,-2.496 3.2,-3.456 6.464,-6.272 9.792,-8.448 3.328,-2.176 7.424,-3.264 12.288,-3.264 4.608,0 8.576,0.96 11.904,2.88 3.456,1.92 6.592,5.184 9.408,9.792 3.456,-3.072 7.488,-5.952 12.096,-8.64 4.736,-2.688 9.664,-4.032 14.784,-4.032 8.832,0 16.128,3.136 21.888,9.408 5.98525,6.55354 5.976,16.14123 6.82465,29.53696 0.18416,1.28 0.47135,5.15104 0.47135,7.71104 0,4.608 -0.19821,10.705 -0.3605,14.62304 -0.19037,4.60948 -0.26679,7.5755 -0.58043,13.65861 -0.0186,6.96816 -0.12459,10.90622 -0.37912,13.96766 -0.58531,7.04 -0.61517,7.07016 -1.49432,15.30857 -4.352,3.584 -10.11363,5.61012 -18.68963,5.61012 -14.72,0 -22.08,-8.128 -22.08,-24.384 0,-3.968 0.128,-9.664 0.384,-17.088 l 0.192,-14.592 c 0,-5.504 -0.256,-9.792 -0.768,-12.864 -0.384,-3.2 -1.216,-5.056 -2.496,-5.568 -1.664,-0.64 -3.072,-0.32 -4.224,0.96 -1.024,1.28 -1.536,2.816 -1.536,4.608 0,4.608 0.704,12.8 2.112,24.576 1.024,8.96 1.536,14.976 1.536,18.048 0,8.064 -1.728,14.464 -5.184,19.2 -3.328,4.736 -9.536,7.104 -18.624,7.104 -7.424,0 -12.992,-1.728 -16.704,-5.184 -3.712,-3.584 -5.568,-9.984 -5.568,-19.2 0,-4.992 0.384,-11.968 1.152,-20.928 0.256,-2.048 0.512,-4.992 0.768,-8.832 0.256,-4.096 0.384,-6.976 0.384,-8.64 0,-4.096 -0.384,-7.168 -1.152,-9.216 -0.768,-2.048 -2.176,-3.072 -4.224,-3.072 -0.768,0 -1.344,0.064 -1.728,0.192 -1.024,0.256 -1.792,0.896 -2.304,1.92 -0.384,0.896 -0.576,2.496 -0.576,4.8 0,3.328 0.256,7.36 0.768,12.096 l 0.96,7.488 c 1.152,8.96 1.728,15.744 1.728,20.352 0,9.728 -2.432,16.768 -7.296,21.12 -4.736,4.224 -10.88,6.336 -18.432,6.336 -7.424,0 -13.44,-2.432 -18.048,-7.296 -4.48,-4.992 -6.464,-12.224 -5.952,-21.696 z m 7.872,-54.528 c 0.128,0.896 0.448,1.664 0.96,2.304 0.512,0.512 1.024,0.768 1.536,0.768 1.024,0 1.536,-0.704 1.536,-2.112 0,-0.768 -0.064,-1.344 -0.192,-1.728 -0.128,-0.768 -0.576,-2.624 -1.344,-5.568 -0.64,-3.072 -0.96,-5.312 -0.96,-6.72 0,-1.664 0.384,-2.752 1.152,-3.264 0.768,-0.64 1.92,-0.96 3.456,-0.96 1.152,0 2.24,0.064 3.264,0.192 1.024,0.128 1.92,0.256 2.688,0.384 h 0.576 c 0.768,0 1.408,-0.128 1.92,-0.384 0.512,-0.384 0.768,-0.768 0.768,-1.152 0,-0.512 -0.512,-0.96 -1.536,-1.344 -0.896,-0.384 -2.24,-0.576 -4.032,-0.576 -5.504,0 -8.832,1.6 -9.984,4.8 -0.512,1.408 -0.768,3.264 -0.768,5.568 0,2.048 0.32,5.312 0.96,9.792 z m 132.864,76.224 c 4.352,-3.456 6.528,-9.792 6.528,-19.008 0,-3.456 -0.32,-6.848 -0.96,-10.176 -0.512,-3.456 -1.152,-6.208 -1.92,-8.256 -0.384,-1.152 -0.896,-1.728 -1.536,-1.728 -0.256,0 -0.448,0.192 -0.576,0.576 -0.128,0.384 -0.064,0.96 0.192,1.728 0.384,1.152 0.832,3.2 1.344,6.144 0.512,2.944 0.768,5.952 0.768,9.024 0,9.216 -2.368,15.616 -7.104,19.2 -0.768,0.512 -1.152,1.088 -1.152,1.728 0,0.512 0.192,0.96 0.576,1.344 0.384,0.256 0.896,0.384 1.536,0.384 0.64,0 1.408,-0.32 2.304,-0.96 z m -54.144,1.152 c 5.504,-2.944 8.256,-8.32 8.256,-16.128 0,-2.56 -0.32,-5.248 -0.96,-8.064 -0.256,-0.768 -0.64,-1.152 -1.152,-1.152 -0.512,0 -0.704,0.448 -0.576,1.344 0.256,1.024 0.384,2.752 0.384,5.184 0,7.552 -2.816,12.8 -8.448,15.744 -0.512,0.384 -0.768,0.832 -0.768,1.344 0,0.768 0.32,1.408 0.96,1.92 0.768,0.384 1.536,0.32 2.304,-0.192 z m 57.41999,16.32 c 0.768,-7.936 1.408,-13.952 1.92,-18.048 2.048,-18.944 2.68179,-32.73992 2.68179,-41.69992 0,-7.68 -0.18579,-17.88408 -1.33779,-30.30008 -0.256,-4.608 -0.384,-7.744 -0.384,-9.408 0,-7.808 1.344,-13.12 4.032,-15.936 2.688,-2.944 7.424,-4.416 14.208,-4.416 4.096,0 7.424,0.64 9.984,1.92 2.688,1.28 4.672,2.752 5.952,4.416 1.408,1.664 2.88,3.904 4.416,6.72 0.128,0.256 0.896,-0.704 2.304,-2.88 1.408,-2.304 3.584,-4.48 6.528,-6.528 2.944,-2.048 6.72,-3.072 11.328,-3.072 10.368,0 18.432,4.416 24.192,13.248 5.76,8.832 9.28,20.736 10.56,35.712 0.256,3.84 0.384,6.72 0.384,8.64 0,8.832 -1.152,17.024 -3.456,24.576 -2.304,7.552 -5.824,13.696 -10.56,18.432 -4.608,4.608 -10.24,6.912 -16.896,6.912 -6.784,0 -11.84,-1.28 -15.168,-3.84 -3.328,-2.688 -5.696,-5.248 -7.104,-7.68 -1.28,-2.56 -2.048,-3.712 -2.304,-3.456 -0.512,0.384 -0.576,1.28 -0.192,2.688 0.512,1.408 1.408,3.584 2.688,6.528 0.256,0.512 1.024,2.24 2.304,5.184 1.28,2.944 2.176,5.824 2.688,8.64 0.64,2.688 0.96,5.696 0.96,9.024 0,7.552 -2.304,13.056 -6.912,16.512 -4.48,3.584 -10.24,5.376 -17.28,5.376 -17.024,0 -25.536,-9.088 -25.536,-27.264 z m 8.256,-96.192 c 0.128,1.024 0.448,1.856 0.96,2.496 0.64,0.512 1.28,0.768 1.92,0.768 0.768,0 1.28,-0.32 1.536,-0.96 0.384,-0.64 0.448,-1.664 0.192,-3.072 -0.768,-4.224 -1.152,-7.424 -1.152,-9.6 0,-2.304 0.448,-3.84 1.344,-4.608 0.896,-0.896 2.368,-1.344 4.416,-1.344 0.768,0 2.688,0.128 5.76,0.384 h 0.576 c 1.024,0 1.792,-0.128 2.304,-0.384 0.64,-0.384 0.96,-0.768 0.96,-1.152 0,-0.64 -0.512,-1.152 -1.536,-1.536 -1.024,-0.384 -2.496,-0.576 -4.416,-0.576 -8.832,0 -13.248,4.864 -13.248,14.592 0,1.024 0.128,2.688 0.384,4.992 z m 39.552,35.328 c 2.048,0 3.584,-1.216 4.608,-3.648 1.024,-2.432 1.536,-5.312 1.536,-8.64 0,-3.456 -0.576,-6.464 -1.728,-9.024 -1.024,-2.688 -2.496,-4.032 -4.416,-4.032 -2.048,0 -3.648,1.216 -4.8,3.648 -1.024,2.304 -1.536,5.184 -1.536,8.64 0,3.456 0.576,6.528 1.728,9.216 1.152,2.56 2.688,3.84 4.608,3.84 z m -7.68,79.68 c 3.712,-3.072 5.568,-7.296 5.568,-12.672 0,-3.456 -0.704,-6.72 -2.112,-9.792 -0.256,-0.64 -0.64,-0.96 -1.152,-0.96 -0.512,0.128 -0.64,0.576 -0.384,1.344 0.896,2.304 1.344,4.608 1.344,6.912 0,4.608 -1.92,8.768 -5.76,12.48 -0.384,0.384 -0.576,0.768 -0.576,1.152 0,0.768 0.32,1.344 0.96,1.728 0.64,0.384 1.344,0.32 2.112,-0.192 z"
       sodipodi:nodetypes="sscsccsccsccscsccccccsssccsccssscscscccsccssccsscccscsccscscccscscscccccsccccccccsccscsscscccccscccscscscssscccccscscccscscsssccccsccccscscccscscscsssccscsscccsccsccscsscccccscscscsccsssccsccscsccscssccscsscscscscssccccssssscscsccccscscsccccscscsccccssscsssscccccscscsccsscsscscscsssscscscscscscscccscsscs"
       transform="rotate(-4.6997138,510.87654,429.42528)"
       inkscape:transform-center-x="23.383657"
       inkscape:transform-center-y="-7.6046831" /></g><style
     type="text/css"
     id="style1">
	.st0{fill:#000000;}
</style></svg>
